<svg width="756" height="804" viewBox="0 0 756 804" fill="none" xmlns="http://www.w3.org/2000/svg">
<g clip-path="url(#clip0_120_532)">
<path d="M707.173 0H114.728V99.5688V376.381V767.358H707.173V241.884V0Z" fill="url(#paint0_linear_120_532)"/>
<path d="M706.232 255.786C706.232 250.89 706.232 246.884 706.232 241.884V0H115.668V99.5688V376.381C115.668 444.002 115.668 511.394 115.668 584.922" stroke="#1E1037" stroke-width="2"/>
<path d="M123.933 127.012H329.077V332.156C329.077 355.904 309.825 375.156 286.077 375.156H80.9331V170.012C80.9331 146.264 100.185 127.012 123.933 127.012Z" fill="url(#paint1_linear_120_532)" stroke="#1E1037" stroke-width="2"/>
<path d="M744.178 111.576C735.161 102.559 723.735 96.3341 711.269 93.6469C698.804 90.9597 685.827 91.9246 673.896 96.4258C661.965 100.927 651.586 108.774 644.001 119.025C636.417 129.276 631.95 141.498 631.136 154.224C630.322 166.949 633.196 179.64 639.412 190.774C645.628 201.908 654.924 211.014 666.184 216.998C677.444 222.983 693.056 225.36 705.762 224.283C705.762 198.189 704.133 218.442 714.225 210.647L697.298 158.456L744.178 111.576Z" fill="#1E1037" fill-opacity="0.1"/>
<path d="M141.885 722.864C133.429 726.39 124.377 728.235 115.228 728.3L115.228 656.862L115.228 585.424C124.377 585.489 133.429 587.334 141.885 590.86C150.496 594.45 158.319 599.712 164.91 606.345C171.5 612.979 176.728 620.854 180.295 629.522C183.861 638.19 185.697 647.48 185.697 656.862C185.697 666.244 183.861 675.534 180.295 684.202C176.728 692.87 171.5 700.745 164.91 707.379C158.319 714.012 150.496 719.274 141.885 722.864Z" fill="#D4FCCD" stroke="#1E1037" stroke-linejoin="round"/>
<path d="M172.381 614.288C164.282 626.847 190.961 658.768 171.703 614.288C160.316 621.13 151.635 631.861 146.883 644.967C142.132 658.072 141.549 672.893 145.218 687.339C150.535 702.849 152.493 703.147 160.947 711.174L171.904 699.264L172.381 614.288Z" fill="#1F1038" fill-opacity="0.1"/>
<circle cx="224.85" cy="656.862" r="71.4398" fill="#CCBFFD" stroke="#1E1037"/>
<circle cx="225.802" cy="665.438" r="22.3919" fill="#1F1038" fill-opacity="0.1"/>
<circle cx="225.802" cy="656.862" r="22.3919" fill="#1F1037"/>
<path d="M373.97 665.914H245.336" stroke="#1E1037" stroke-opacity="0.1" stroke-width="2.6"/>
<rect x="227.231" y="647.81" width="18.1041" height="2.85853" rx="1.42927" transform="rotate(90 227.231 647.81)" fill="#C9BDF9"/>
<rect width="18.1041" height="2.85853" rx="1.42927" transform="matrix(-1 -8.74228e-08 -8.74228e-08 1 234.854 655.433)" fill="#C9BDF9"/>
<path d="M89.3369 657.332H92.1581" stroke="#1E1037" stroke-width="2.6"/>
<path d="M100.622 657.332H103.443" stroke="#1E1037" stroke-width="2.6"/>
<path d="M111.906 657.332H114.727" stroke="#1E1037" stroke-width="2.6"/>
<path d="M123.191 657.332H126.012" stroke="#1E1037" stroke-width="2.6"/>
<path d="M134.476 657.332H137.297" stroke="#1E1037" stroke-width="2.6"/>
<path d="M145.76 657.332H148.581" stroke="#1E1037" stroke-width="2.6"/>
<path d="M89.3369 667.676H92.1581" stroke="#1E1037" stroke-opacity="0.1" stroke-width="2.6"/>
<path d="M100.622 667.676H103.443" stroke="#1E1037" stroke-opacity="0.1" stroke-width="2.6"/>
<path d="M111.906 667.676H114.727" stroke="#1E1037" stroke-opacity="0.1" stroke-width="2.6"/>
<path d="M123.191 667.676H126.012" stroke="#1E1037" stroke-opacity="0.1" stroke-width="2.6"/>
<path d="M134.476 667.676H137.297" stroke="#1E1037" stroke-opacity="0.1" stroke-width="2.6"/>
<path d="M145.76 667.676H148.581" stroke="#1E1037" stroke-opacity="0.1" stroke-width="2.6"/>
<rect x="-0.5" y="-0.5" width="80.8139" height="81.7543" rx="20.5" transform="matrix(1.19249e-08 -1 -1 -1.19249e-08 81.7544 695.828)" fill="#FDFDFD" stroke="#1F1332"/>
<path d="M31.0932 658.168C32.0336 655.347 44.729 642.182 45.1991 644.063C45.6692 645.943 41.9078 657.698 42.8481 658.168C43.7884 658.639 50.8415 660.99 50.8414 663.811C50.8413 666.632 37.2057 678.857 35.7952 678.387C34.3847 677.917 38.6164 668.513 39.5567 666.632C40.4971 664.751 30.1528 660.99 31.0932 658.168Z" fill="#1F1037" fill-opacity="0.1"/>
<path d="M31.0932 648.111C32.0336 645.29 44.729 632.125 45.1991 634.005C45.6692 635.886 41.9078 647.641 42.8481 648.111C43.7884 648.581 50.8415 650.932 50.8414 653.754C50.8413 656.575 37.2057 668.8 35.7952 668.33C34.3847 667.859 38.6164 658.456 39.5567 656.575C40.4971 654.694 30.1528 650.932 31.0932 648.111Z" fill="#1F1037"/>
<circle cx="486.651" cy="255.316" r="70.9994" fill="#1E1037"/>
<circle cx="372.864" cy="255.316" r="70.4994" fill="#D4FCCD" stroke="#1E1037"/>
<circle cx="372.865" cy="255.316" r="28.1819" fill="#FBFBFB" stroke="#1E1037"/>
<rect x="374.275" y="246.382" width="17.8674" height="2.82117" rx="1.41058" transform="rotate(90 374.275 246.382)" fill="#1F1038"/>
<rect width="17.8674" height="2.82117" rx="1.41058" transform="matrix(-1 -8.74228e-08 -8.74228e-08 1 381.798 253.905)" fill="#1F1038"/>
<rect x="630.061" y="400.606" width="25.3905" height="7.52311" rx="3.76156" transform="rotate(90 630.061 400.606)" fill="#1F1038"/>
<rect x="489.943" y="378.036" width="47.9599" height="7.52311" rx="3.76156" transform="rotate(90 489.943 378.036)" fill="#1F1038"/>
<rect x="550.128" y="400.606" width="25.3905" height="7.52311" rx="3.76156" transform="rotate(90 550.128 400.606)" fill="#1F1038"/>
<rect x="595.267" y="539.783" width="25.3905" height="7.52311" rx="3.76156" transform="rotate(90 595.267 539.783)" fill="#1F1038"/>
<path d="M485.241 173.032L485.241 175.853" stroke="#1E1037" stroke-width="2.6"/>
<path d="M485.241 161.747L485.241 164.568" stroke="#1E1037" stroke-width="2.6"/>
<path d="M485.241 150.462L485.241 153.283" stroke="#1E1037" stroke-width="2.6"/>
<path d="M485.241 139.178L485.241 141.999" stroke="#1E1037" stroke-width="2.6"/>
<path d="M485.241 127.893L485.241 130.714" stroke="#1E1037" stroke-width="2.6"/>
<path d="M485.241 116.608L485.241 119.429" stroke="#1E1037" stroke-width="2.6"/>
<path d="M485.241 105.324L485.241 108.145" stroke="#1E1037" stroke-width="2.6"/>
<path d="M485.241 94.0389L485.241 96.8601" stroke="#1E1037" stroke-width="2.6"/>
<path d="M485.241 82.7543L485.241 85.5754" stroke="#1E1037" stroke-width="2.6"/>
<path d="M485.241 71.4696L485.241 74.2907" stroke="#1E1037" stroke-width="2.6"/>
<path d="M485.241 60.1849L485.241 63.0061" stroke="#1E1037" stroke-width="2.6"/>
<path d="M485.241 48.9002L485.241 51.7214" stroke="#1E1037" stroke-width="2.6"/>
<path d="M485.241 37.6156L485.241 40.4367" stroke="#1E1037" stroke-width="2.6"/>
<path d="M116.608 375.215H293.402V375.215C293.402 394.951 277.403 410.95 257.667 410.95H116.608V375.215Z" fill="#1E1037"/>
<path d="M168.164 538.87C168.164 539.629 167.972 540.207 167.586 540.604C167.212 540.989 166.651 541.182 165.903 541.182L161.585 541.182C161.279 541.182 161.058 541.25 160.922 541.386C160.786 541.511 160.718 541.698 160.718 541.947L160.718 542.525L159.698 542.525L159.698 541.947C159.698 541.698 159.63 541.511 159.494 541.386C159.358 541.25 159.137 541.182 158.831 541.182L154.513 541.182C153.754 541.182 153.187 540.989 152.813 540.604C152.439 540.207 152.252 539.629 152.252 538.87L152.252 538.224L153.255 538.224L153.255 538.683C153.255 539.114 153.374 539.437 153.612 539.652C153.85 539.867 154.185 539.975 154.615 539.975L158.814 539.975C159.154 539.975 159.421 540.015 159.613 540.094C159.806 540.173 159.953 540.298 160.055 540.468C160.157 540.627 160.237 540.836 160.293 541.097L160.123 541.097C160.169 540.836 160.248 540.627 160.361 540.468C160.463 540.298 160.611 540.173 160.803 540.094C160.996 540.015 161.262 539.975 161.602 539.975L165.801 539.975C166.232 539.975 166.566 539.867 166.804 539.652C167.042 539.437 167.161 539.114 167.161 538.683L167.161 538.224L168.164 538.224L168.164 538.87ZM168.164 531.492C168.164 532.252 167.972 532.83 167.586 533.226C167.212 533.612 166.651 533.804 165.903 533.804L161.585 533.804C161.279 533.804 161.058 533.872 160.922 534.008C160.786 534.133 160.718 534.32 160.718 534.569L160.718 535.147L159.698 535.147L159.698 534.569C159.698 534.32 159.63 534.133 159.494 534.008C159.358 533.872 159.137 533.804 158.831 533.804L154.513 533.804C153.754 533.804 153.187 533.612 152.813 533.226C152.439 532.83 152.252 532.252 152.252 531.492L152.252 530.846L153.255 530.846L153.255 531.305C153.255 531.736 153.374 532.059 153.612 532.274C153.85 532.49 154.185 532.597 154.615 532.597L158.814 532.597C159.154 532.597 159.421 532.637 159.613 532.716C159.806 532.796 159.953 532.92 160.055 533.09C160.157 533.249 160.237 533.459 160.293 533.719L160.123 533.719C160.169 533.459 160.248 533.249 160.361 533.09C160.463 532.92 160.611 532.796 160.803 532.716C160.996 532.637 161.262 532.597 161.602 532.597L165.801 532.597C166.232 532.597 166.566 532.49 166.804 532.274C167.042 532.059 167.161 531.736 167.161 531.305L167.161 530.846L168.164 530.846L168.164 531.492ZM166.906 523.928L150.926 523.928L150.926 523.078L166.906 523.078L166.906 523.928ZM164.968 523.571C164.968 524.455 164.827 525.305 164.543 526.121C164.249 526.925 163.875 527.549 163.421 527.991L162.452 527.498C162.86 527.078 163.206 526.517 163.489 525.815C163.761 525.101 163.897 524.353 163.897 523.571C163.897 522.823 163.807 522.216 163.625 521.752C163.433 521.276 163.178 520.93 162.86 520.715C162.543 520.488 162.192 520.375 161.806 520.375C161.342 520.375 160.968 520.511 160.684 520.783C160.401 521.043 160.18 521.389 160.021 521.82C159.851 522.25 159.704 522.726 159.579 523.248C159.455 523.769 159.324 524.29 159.188 524.812C159.041 525.333 158.848 525.815 158.61 526.257C158.372 526.687 158.061 527.039 157.675 527.311C157.279 527.571 156.763 527.702 156.128 527.702C155.539 527.702 155.001 527.549 154.513 527.243C154.015 526.925 153.618 526.444 153.323 525.798C153.017 525.152 152.864 524.324 152.864 523.316C152.864 522.647 152.961 521.984 153.153 521.327C153.335 520.669 153.59 520.103 153.918 519.627L154.921 520.052C154.581 520.562 154.332 521.106 154.173 521.684C154.015 522.25 153.935 522.8 153.935 523.333C153.935 524.047 154.032 524.636 154.224 525.101C154.417 525.565 154.678 525.911 155.006 526.138C155.324 526.353 155.686 526.461 156.094 526.461C156.559 526.461 156.933 526.33 157.216 526.07C157.5 525.798 157.721 525.446 157.879 525.016C158.038 524.574 158.18 524.092 158.304 523.571C158.429 523.049 158.565 522.534 158.712 522.024C158.86 521.502 159.052 521.026 159.29 520.596C159.517 520.154 159.823 519.802 160.208 519.542C160.594 519.27 161.098 519.134 161.721 519.134C162.299 519.134 162.838 519.292 163.336 519.61C163.824 519.927 164.22 520.414 164.526 521.072C164.821 521.718 164.968 522.551 164.968 523.571ZM164.951 514.496C164.951 514.746 164.861 514.961 164.679 515.142C164.498 515.312 164.277 515.397 164.016 515.397C163.744 515.397 163.523 515.312 163.353 515.142C163.183 514.961 163.098 514.746 163.098 514.496C163.098 514.247 163.183 514.037 163.353 513.867C163.523 513.686 163.744 513.595 164.016 513.595C164.277 513.595 164.498 513.686 164.679 513.867C164.861 514.037 164.951 514.247 164.951 514.496ZM164.951 506.916C164.951 507.653 164.849 508.35 164.645 509.007C164.43 509.664 164.164 510.18 163.846 510.554L162.894 510.01C163.166 509.647 163.404 509.183 163.608 508.616C163.801 508.049 163.897 507.454 163.897 506.831C163.897 505.981 163.767 505.369 163.506 504.995C163.234 504.621 162.877 504.434 162.435 504.434C162.107 504.434 161.852 504.542 161.67 504.757C161.478 504.961 161.336 505.233 161.245 505.573C161.143 505.913 161.058 506.293 160.99 506.712C160.922 507.131 160.843 507.551 160.752 507.97C160.662 508.378 160.531 508.752 160.361 509.092C160.18 509.432 159.936 509.71 159.63 509.925C159.324 510.129 158.916 510.231 158.406 510.231C157.919 510.231 157.483 510.095 157.097 509.823C156.712 509.551 156.412 509.154 156.196 508.633C155.97 508.1 155.856 507.454 155.856 506.695C155.856 506.117 155.936 505.539 156.094 504.961C156.242 504.383 156.44 503.907 156.689 503.533L157.658 504.06C157.386 504.457 157.194 504.882 157.08 505.335C156.956 505.788 156.893 506.242 156.893 506.695C156.893 507.5 157.035 508.095 157.318 508.48C157.59 508.854 157.942 509.041 158.372 509.041C158.712 509.041 158.979 508.939 159.171 508.735C159.364 508.52 159.517 508.242 159.63 507.902C159.732 507.551 159.817 507.171 159.885 506.763C159.953 506.344 160.038 505.93 160.14 505.522C160.231 505.103 160.361 504.723 160.531 504.383C160.69 504.032 160.922 503.754 161.228 503.55C161.523 503.335 161.914 503.227 162.401 503.227C162.923 503.227 163.376 503.374 163.761 503.669C164.135 503.952 164.43 504.372 164.645 504.927C164.849 505.471 164.951 506.134 164.951 506.916ZM164.951 496.49C164.951 497.329 164.725 497.975 164.271 498.428C163.818 498.882 163.178 499.108 162.35 499.108L153.969 499.108L153.969 497.901L162.282 497.901C162.804 497.901 163.206 497.771 163.489 497.51C163.773 497.238 163.914 496.853 163.914 496.354C163.914 495.822 163.761 495.38 163.455 495.028L164.322 494.603C164.538 494.841 164.696 495.13 164.798 495.47C164.9 495.799 164.951 496.139 164.951 496.49ZM156.944 500.706L155.941 500.706L155.941 495.181L156.944 495.181L156.944 500.706ZM164.951 487.23C164.951 488.16 164.759 488.976 164.373 489.678C163.977 490.381 163.438 490.931 162.758 491.327C162.067 491.724 161.279 491.922 160.395 491.922C159.511 491.922 158.729 491.735 158.049 491.361C157.369 490.976 156.837 490.455 156.451 489.797C156.055 489.129 155.856 488.381 155.856 487.553C155.856 486.715 156.049 485.972 156.434 485.326C156.808 484.669 157.341 484.153 158.032 483.779C158.712 483.405 159.5 483.218 160.395 483.218C160.452 483.218 160.514 483.224 160.582 483.235C160.639 483.235 160.701 483.235 160.769 483.235L160.769 491.004L159.868 491.004L159.868 483.881L160.225 484.357C159.579 484.357 159.007 484.499 158.508 484.782C157.998 485.054 157.602 485.428 157.318 485.904C157.035 486.38 156.893 486.93 156.893 487.553C156.893 488.165 157.035 488.715 157.318 489.202C157.602 489.69 157.998 490.069 158.508 490.341C159.018 490.613 159.602 490.749 160.259 490.749L160.446 490.749C161.126 490.749 161.727 490.602 162.248 490.307C162.758 490.001 163.161 489.582 163.455 489.049C163.739 488.505 163.88 487.888 163.88 487.196C163.88 486.652 163.784 486.148 163.591 485.683C163.399 485.207 163.104 484.799 162.707 484.459L163.489 483.779C163.965 484.176 164.328 484.675 164.577 485.275C164.827 485.865 164.951 486.516 164.951 487.23ZM164.951 474.455C164.951 475.225 164.776 475.922 164.424 476.546C164.062 477.169 163.546 477.668 162.877 478.042C162.197 478.404 161.37 478.586 160.395 478.586C159.421 478.586 158.599 478.404 157.93 478.042C157.25 477.679 156.735 477.186 156.383 476.563C156.032 475.939 155.856 475.237 155.856 474.455C155.856 473.605 156.049 472.845 156.434 472.177C156.808 471.497 157.341 470.964 158.032 470.579C158.712 470.193 159.5 470.001 160.395 470.001C161.302 470.001 162.095 470.193 162.775 470.579C163.455 470.964 163.988 471.497 164.373 472.177C164.759 472.845 164.951 473.605 164.951 474.455ZM168.164 479.062L155.941 479.062L155.941 477.906L158.627 477.906L160.412 478.025L162.214 477.855L168.164 477.855L168.164 479.062ZM163.88 474.54C163.88 473.905 163.739 473.338 163.455 472.84C163.161 472.341 162.753 471.944 162.231 471.65C161.699 471.355 161.087 471.208 160.395 471.208C159.704 471.208 159.098 471.355 158.576 471.65C158.055 471.944 157.647 472.341 157.352 472.84C157.058 473.338 156.91 473.905 156.91 474.54C156.91 475.174 157.058 475.747 157.352 476.257C157.647 476.755 158.055 477.152 158.576 477.447C159.098 477.73 159.704 477.872 160.395 477.872C161.087 477.872 161.699 477.73 162.231 477.447C162.753 477.152 163.161 476.755 163.455 476.257C163.739 475.747 163.88 475.174 163.88 474.54ZM164.951 463.443C164.951 464.18 164.849 464.877 164.645 465.534C164.43 466.191 164.164 466.707 163.846 467.081L162.894 466.537C163.166 466.174 163.404 465.71 163.608 465.143C163.801 464.576 163.897 463.981 163.897 463.358C163.897 462.508 163.767 461.896 163.506 461.522C163.234 461.148 162.877 460.961 162.435 460.961C162.107 460.961 161.852 461.069 161.67 461.284C161.478 461.488 161.336 461.76 161.245 462.1C161.143 462.44 161.058 462.82 160.99 463.239C160.922 463.658 160.843 464.078 160.752 464.497C160.662 464.905 160.531 465.279 160.361 465.619C160.18 465.959 159.936 466.237 159.63 466.452C159.324 466.656 158.916 466.758 158.406 466.758C157.919 466.758 157.483 466.622 157.097 466.35C156.712 466.078 156.412 465.681 156.196 465.16C155.97 464.627 155.856 463.981 155.856 463.222C155.856 462.644 155.936 462.066 156.094 461.488C156.242 460.91 156.44 460.434 156.689 460.06L157.658 460.587C157.386 460.984 157.194 461.409 157.08 461.862C156.956 462.315 156.893 462.769 156.893 463.222C156.893 464.027 157.035 464.622 157.318 465.007C157.59 465.381 157.942 465.568 158.372 465.568C158.712 465.568 158.979 465.466 159.171 465.262C159.364 465.047 159.517 464.769 159.63 464.429C159.732 464.078 159.817 463.698 159.885 463.29C159.953 462.871 160.038 462.457 160.14 462.049C160.231 461.63 160.361 461.25 160.531 460.91C160.69 460.559 160.922 460.281 161.228 460.077C161.523 459.862 161.914 459.754 162.401 459.754C162.923 459.754 163.376 459.901 163.761 460.196C164.135 460.479 164.43 460.899 164.645 461.454C164.849 461.998 164.951 462.661 164.951 463.443ZM185.951 541.743C185.951 541.992 185.861 542.208 185.679 542.389C185.498 542.559 185.277 542.644 185.016 542.644C184.744 542.644 184.523 542.559 184.353 542.389C184.183 542.208 184.098 541.992 184.098 541.743C184.098 541.494 184.183 541.284 184.353 541.114C184.523 540.933 184.744 540.842 185.016 540.842C185.277 540.842 185.498 540.933 185.679 541.114C185.861 541.284 185.951 541.494 185.951 541.743ZM185.951 536.44C185.951 536.69 185.861 536.905 185.679 537.086C185.498 537.256 185.277 537.341 185.016 537.341C184.744 537.341 184.523 537.256 184.353 537.086C184.183 536.905 184.098 536.69 184.098 536.44C184.098 536.191 184.183 535.981 184.353 535.811C184.523 535.63 184.744 535.539 185.016 535.539C185.277 535.539 185.498 535.63 185.679 535.811C185.861 535.981 185.951 536.191 185.951 536.44ZM185.951 531.138C185.951 531.387 185.861 531.603 185.679 531.784C185.498 531.954 185.277 532.039 185.016 532.039C184.744 532.039 184.523 531.954 184.353 531.784C184.183 531.603 184.098 531.387 184.098 531.138C184.098 530.889 184.183 530.679 184.353 530.509C184.523 530.328 184.744 530.237 185.016 530.237C185.277 530.237 185.498 530.328 185.679 530.509C185.861 530.679 185.951 530.889 185.951 531.138Z" fill="black"/>
<path d="M479.862 645.04V629.06H480.712V645.04H479.862ZM480.219 643.102C479.335 643.102 478.485 642.96 477.669 642.677C476.864 642.382 476.241 642.008 475.799 641.555L476.292 640.586C476.711 640.994 477.272 641.34 477.975 641.623C478.689 641.895 479.437 642.031 480.219 642.031C480.967 642.031 481.573 641.94 482.038 641.759C482.514 641.566 482.86 641.311 483.075 640.994C483.302 640.677 483.415 640.325 483.415 639.94C483.415 639.475 483.279 639.101 483.007 638.818C482.746 638.535 482.401 638.314 481.97 638.155C481.539 637.985 481.063 637.838 480.542 637.713C480.021 637.588 479.499 637.458 478.978 637.322C478.457 637.175 477.975 636.982 477.533 636.744C477.102 636.506 476.751 636.194 476.479 635.809C476.218 635.412 476.088 634.897 476.088 634.262C476.088 633.673 476.241 633.134 476.547 632.647C476.864 632.148 477.346 631.752 477.992 631.457C478.638 631.151 479.465 630.998 480.474 630.998C481.143 630.998 481.806 631.094 482.463 631.287C483.12 631.468 483.687 631.723 484.163 632.052L483.738 633.055C483.228 632.715 482.684 632.466 482.106 632.307C481.539 632.148 480.99 632.069 480.457 632.069C479.743 632.069 479.154 632.165 478.689 632.358C478.224 632.551 477.879 632.811 477.652 633.14C477.437 633.457 477.329 633.82 477.329 634.228C477.329 634.693 477.459 635.067 477.72 635.35C477.992 635.633 478.343 635.854 478.774 636.013C479.216 636.172 479.698 636.313 480.219 636.438C480.74 636.563 481.256 636.699 481.766 636.846C482.287 636.993 482.763 637.186 483.194 637.424C483.636 637.651 483.987 637.957 484.248 638.342C484.52 638.727 484.656 639.232 484.656 639.855C484.656 640.433 484.497 640.971 484.18 641.47C483.863 641.957 483.375 642.354 482.718 642.66C482.072 642.955 481.239 643.102 480.219 643.102ZM487.593 643.085C487.344 643.085 487.128 642.994 486.947 642.813C486.777 642.632 486.692 642.411 486.692 642.15C486.692 641.878 486.777 641.657 486.947 641.487C487.128 641.317 487.344 641.232 487.593 641.232C487.842 641.232 488.052 641.317 488.222 641.487C488.403 641.657 488.494 641.878 488.494 642.15C488.494 642.411 488.403 642.632 488.222 642.813C488.052 642.994 487.842 643.085 487.593 643.085ZM493.474 643.085C492.737 643.085 492.04 642.983 491.383 642.779C490.725 642.564 490.21 642.297 489.836 641.98L490.38 641.028C490.742 641.3 491.207 641.538 491.774 641.742C492.34 641.935 492.935 642.031 493.559 642.031C494.409 642.031 495.021 641.901 495.395 641.64C495.769 641.368 495.956 641.011 495.956 640.569C495.956 640.24 495.848 639.985 495.633 639.804C495.429 639.611 495.157 639.47 494.817 639.379C494.477 639.277 494.097 639.192 493.678 639.124C493.258 639.056 492.839 638.977 492.42 638.886C492.012 638.795 491.638 638.665 491.298 638.495C490.958 638.314 490.68 638.07 490.465 637.764C490.261 637.458 490.159 637.05 490.159 636.54C490.159 636.053 490.295 635.616 490.567 635.231C490.839 634.846 491.235 634.545 491.757 634.33C492.289 634.103 492.935 633.99 493.695 633.99C494.273 633.99 494.851 634.069 495.429 634.228C496.007 634.375 496.483 634.574 496.857 634.823L496.33 635.792C495.933 635.52 495.508 635.327 495.055 635.214C494.601 635.089 494.148 635.027 493.695 635.027C492.89 635.027 492.295 635.169 491.91 635.452C491.536 635.724 491.349 636.075 491.349 636.506C491.349 636.846 491.451 637.112 491.655 637.305C491.87 637.498 492.148 637.651 492.488 637.764C492.839 637.866 493.219 637.951 493.627 638.019C494.046 638.087 494.46 638.172 494.868 638.274C495.287 638.365 495.667 638.495 496.007 638.665C496.358 638.824 496.636 639.056 496.84 639.362C497.055 639.657 497.163 640.048 497.163 640.535C497.163 641.056 497.015 641.51 496.721 641.895C496.437 642.269 496.018 642.564 495.463 642.779C494.919 642.983 494.256 643.085 493.474 643.085ZM502.199 643.085C501.361 643.085 500.715 642.858 500.261 642.405C499.808 641.952 499.581 641.311 499.581 640.484V632.103H500.788V640.416C500.788 640.937 500.919 641.34 501.179 641.623C501.451 641.906 501.837 642.048 502.335 642.048C502.868 642.048 503.31 641.895 503.661 641.589L504.086 642.456C503.848 642.671 503.559 642.83 503.219 642.932C502.891 643.034 502.551 643.085 502.199 643.085ZM497.983 635.078V634.075H503.508V635.078H497.983ZM509.759 643.085C508.83 643.085 508.014 642.892 507.311 642.507C506.608 642.11 506.059 641.572 505.662 640.892C505.265 640.201 505.067 639.413 505.067 638.529C505.067 637.645 505.254 636.863 505.628 636.183C506.013 635.503 506.535 634.97 507.192 634.585C507.861 634.188 508.609 633.99 509.436 633.99C510.275 633.99 511.017 634.183 511.663 634.568C512.32 634.942 512.836 635.475 513.21 636.166C513.584 636.846 513.771 637.634 513.771 638.529C513.771 638.586 513.765 638.648 513.754 638.716C513.754 638.773 513.754 638.835 513.754 638.903H505.985V638.002H513.108L512.632 638.359C512.632 637.713 512.49 637.141 512.207 636.642C511.935 636.132 511.561 635.735 511.085 635.452C510.609 635.169 510.059 635.027 509.436 635.027C508.824 635.027 508.274 635.169 507.787 635.452C507.3 635.735 506.92 636.132 506.648 636.642C506.376 637.152 506.24 637.736 506.24 638.393V638.58C506.24 639.26 506.387 639.861 506.682 640.382C506.988 640.892 507.407 641.294 507.94 641.589C508.484 641.872 509.102 642.014 509.793 642.014C510.337 642.014 510.841 641.918 511.306 641.725C511.782 641.532 512.19 641.238 512.53 640.841L513.21 641.623C512.813 642.099 512.315 642.462 511.714 642.711C511.125 642.96 510.473 643.085 509.759 643.085ZM520.835 643.085C520.064 643.085 519.367 642.909 518.744 642.558C518.121 642.195 517.622 641.68 517.248 641.011C516.885 640.331 516.704 639.504 516.704 638.529C516.704 637.554 516.885 636.733 517.248 636.064C517.611 635.384 518.104 634.868 518.727 634.517C519.35 634.166 520.053 633.99 520.835 633.99C521.685 633.99 522.444 634.183 523.113 634.568C523.793 634.942 524.326 635.475 524.711 636.166C525.096 636.846 525.289 637.634 525.289 638.529C525.289 639.436 525.096 640.229 524.711 640.909C524.326 641.589 523.793 642.122 523.113 642.507C522.444 642.892 521.685 643.085 520.835 643.085ZM516.228 646.298V634.075H517.384V636.761L517.265 638.546L517.435 640.348V646.298H516.228ZM520.75 642.014C521.385 642.014 521.951 641.872 522.45 641.589C522.949 641.294 523.345 640.886 523.64 640.365C523.935 639.832 524.082 639.22 524.082 638.529C524.082 637.838 523.935 637.231 523.64 636.71C523.345 636.189 522.949 635.781 522.45 635.486C521.951 635.191 521.385 635.044 520.75 635.044C520.115 635.044 519.543 635.191 519.033 635.486C518.534 635.781 518.138 636.189 517.843 636.71C517.56 637.231 517.418 637.838 517.418 638.529C517.418 639.22 517.56 639.832 517.843 640.365C518.138 640.886 518.534 641.294 519.033 641.589C519.543 641.872 520.115 642.014 520.75 642.014ZM530.146 643.085C529.41 643.085 528.713 642.983 528.055 642.779C527.398 642.564 526.882 642.297 526.508 641.98L527.052 641.028C527.415 641.3 527.88 641.538 528.446 641.742C529.013 641.935 529.608 642.031 530.231 642.031C531.081 642.031 531.693 641.901 532.067 641.64C532.441 641.368 532.628 641.011 532.628 640.569C532.628 640.24 532.521 639.985 532.305 639.804C532.101 639.611 531.829 639.47 531.489 639.379C531.149 639.277 530.77 639.192 530.35 639.124C529.931 639.056 529.512 638.977 529.092 638.886C528.684 638.795 528.31 638.665 527.97 638.495C527.63 638.314 527.353 638.07 527.137 637.764C526.933 637.458 526.831 637.05 526.831 636.54C526.831 636.053 526.967 635.616 527.239 635.231C527.511 634.846 527.908 634.545 528.429 634.33C528.962 634.103 529.608 633.99 530.367 633.99C530.945 633.99 531.523 634.069 532.101 634.228C532.679 634.375 533.155 634.574 533.529 634.823L533.002 635.792C532.606 635.52 532.181 635.327 531.727 635.214C531.274 635.089 530.821 635.027 530.367 635.027C529.563 635.027 528.968 635.169 528.582 635.452C528.208 635.724 528.021 636.075 528.021 636.506C528.021 636.846 528.123 637.112 528.327 637.305C528.543 637.498 528.82 637.651 529.16 637.764C529.512 637.866 529.891 637.951 530.299 638.019C530.719 638.087 531.132 638.172 531.54 638.274C531.96 638.365 532.339 638.495 532.679 638.665C533.031 638.824 533.308 639.056 533.512 639.362C533.728 639.657 533.835 640.048 533.835 640.535C533.835 641.056 533.688 641.51 533.393 641.895C533.11 642.269 532.691 642.564 532.135 642.779C531.591 642.983 530.928 643.085 530.146 643.085ZM536.169 643.085C535.92 643.085 535.705 642.994 535.523 642.813C535.353 642.632 535.268 642.411 535.268 642.15C535.268 641.878 535.353 641.657 535.523 641.487C535.705 641.317 535.92 641.232 536.169 641.232C536.419 641.232 536.628 641.317 536.798 641.487C536.98 641.657 537.07 641.878 537.07 642.15C537.07 642.411 536.98 642.632 536.798 642.813C536.628 642.994 536.419 643.085 536.169 643.085ZM539.653 643V634.075H540.809V636.506L540.69 636.081C540.939 635.401 541.358 634.885 541.948 634.534C542.537 634.171 543.268 633.99 544.141 633.99V635.163C544.095 635.163 544.05 635.163 544.005 635.163C543.959 635.152 543.914 635.146 543.869 635.146C542.928 635.146 542.191 635.435 541.659 636.013C541.126 636.58 540.86 637.39 540.86 638.444V643H539.653ZM551.272 643V641.028L551.221 640.705V637.407C551.221 636.648 551.006 636.064 550.575 635.656C550.156 635.248 549.527 635.044 548.688 635.044C548.11 635.044 547.56 635.14 547.039 635.333C546.518 635.526 546.076 635.781 545.713 636.098L545.169 635.197C545.622 634.812 546.166 634.517 546.801 634.313C547.436 634.098 548.104 633.99 548.807 633.99C549.963 633.99 550.853 634.279 551.476 634.857C552.111 635.424 552.428 636.291 552.428 637.458V643H551.272ZM548.195 643.085C547.526 643.085 546.943 642.977 546.444 642.762C545.957 642.535 545.583 642.229 545.322 641.844C545.061 641.447 544.931 640.994 544.931 640.484C544.931 640.019 545.039 639.6 545.254 639.226C545.481 638.841 545.843 638.535 546.342 638.308C546.852 638.07 547.532 637.951 548.382 637.951H551.459V638.852H548.416C547.555 638.852 546.954 639.005 546.614 639.311C546.285 639.617 546.121 639.997 546.121 640.45C546.121 640.96 546.319 641.368 546.716 641.674C547.113 641.98 547.668 642.133 548.382 642.133C549.062 642.133 549.646 641.98 550.133 641.674C550.632 641.357 550.994 640.903 551.221 640.314L551.493 641.147C551.266 641.736 550.87 642.207 550.303 642.558C549.748 642.909 549.045 643.085 548.195 643.085ZM555.608 646.383C555.189 646.383 554.787 646.315 554.401 646.179C554.027 646.043 553.704 645.839 553.432 645.567L553.993 644.666C554.22 644.881 554.464 645.046 554.724 645.159C554.996 645.284 555.297 645.346 555.625 645.346C556.022 645.346 556.362 645.233 556.645 645.006C556.94 644.791 557.218 644.405 557.478 643.85L558.056 642.541L558.192 642.354L561.864 634.075H563.054L558.583 644.071C558.334 644.649 558.056 645.108 557.75 645.448C557.456 645.788 557.133 646.026 556.781 646.162C556.43 646.309 556.039 646.383 555.608 646.383ZM557.988 643.255L553.874 634.075H555.132L558.77 642.269L557.988 643.255ZM570.082 643V641.028L570.031 640.705V637.407C570.031 636.648 569.815 636.064 569.385 635.656C568.965 635.248 568.336 635.044 567.498 635.044C566.92 635.044 566.37 635.14 565.849 635.333C565.327 635.526 564.885 635.781 564.523 636.098L563.979 635.197C564.432 634.812 564.976 634.517 565.611 634.313C566.245 634.098 566.914 633.99 567.617 633.99C568.773 633.99 569.662 634.279 570.286 634.857C570.92 635.424 571.238 636.291 571.238 637.458V643H570.082ZM567.005 643.085C566.336 643.085 565.752 642.977 565.254 642.762C564.766 642.535 564.392 642.229 564.132 641.844C563.871 641.447 563.741 640.994 563.741 640.484C563.741 640.019 563.848 639.6 564.064 639.226C564.29 638.841 564.653 638.535 565.152 638.308C565.662 638.07 566.342 637.951 567.192 637.951H570.269V638.852H567.226C566.364 638.852 565.764 639.005 565.424 639.311C565.095 639.617 564.931 639.997 564.931 640.45C564.931 640.96 565.129 641.368 565.526 641.674C565.922 641.98 566.478 642.133 567.192 642.133C567.872 642.133 568.455 641.98 568.943 641.674C569.441 641.357 569.804 640.903 570.031 640.314L570.303 641.147C570.076 641.736 569.679 642.207 569.113 642.558C568.557 642.909 567.855 643.085 567.005 643.085ZM576.169 643L572.803 634.075H573.959L577.019 642.354H576.492L579.637 634.075H580.674L583.785 642.354H583.258L586.369 634.075H587.474L584.091 643H582.952L579.96 635.214H580.317L577.308 643H576.169ZM594.619 643V641.028L594.568 640.705V637.407C594.568 636.648 594.352 636.064 593.922 635.656C593.502 635.248 592.873 635.044 592.035 635.044C591.457 635.044 590.907 635.14 590.386 635.333C589.864 635.526 589.422 635.781 589.06 636.098L588.516 635.197C588.969 634.812 589.513 634.517 590.148 634.313C590.782 634.098 591.451 633.99 592.154 633.99C593.31 633.99 594.199 634.279 594.823 634.857C595.457 635.424 595.775 636.291 595.775 637.458V643H594.619ZM591.542 643.085C590.873 643.085 590.289 642.977 589.791 642.762C589.303 642.535 588.929 642.229 588.669 641.844C588.408 641.447 588.278 640.994 588.278 640.484C588.278 640.019 588.385 639.6 588.601 639.226C588.827 638.841 589.19 638.535 589.689 638.308C590.199 638.07 590.879 637.951 591.729 637.951H594.806V638.852H591.763C590.901 638.852 590.301 639.005 589.961 639.311C589.632 639.617 589.468 639.997 589.468 640.45C589.468 640.96 589.666 641.368 590.063 641.674C590.459 641.98 591.015 642.133 591.729 642.133C592.409 642.133 592.992 641.98 593.48 641.674C593.978 641.357 594.341 640.903 594.568 640.314L594.84 641.147C594.613 641.736 594.216 642.207 593.65 642.558C593.094 642.909 592.392 643.085 591.542 643.085ZM598.955 646.383C598.536 646.383 598.133 646.315 597.748 646.179C597.374 646.043 597.051 645.839 596.779 645.567L597.34 644.666C597.567 644.881 597.81 645.046 598.071 645.159C598.343 645.284 598.643 645.346 598.972 645.346C599.369 645.346 599.709 645.233 599.992 645.006C600.287 644.791 600.564 644.405 600.825 643.85L601.403 642.541L601.539 642.354L605.211 634.075H606.401L601.93 644.071C601.681 644.649 601.403 645.108 601.097 645.448C600.802 645.788 600.479 646.026 600.128 646.162C599.777 646.309 599.386 646.383 598.955 646.383ZM601.335 643.255L597.221 634.075H598.479L602.117 642.269L601.335 643.255ZM607.639 643.085C607.39 643.085 607.174 642.994 606.993 642.813C606.823 642.632 606.738 642.411 606.738 642.15C606.738 641.878 606.823 641.657 606.993 641.487C607.174 641.317 607.39 641.232 607.639 641.232C607.888 641.232 608.098 641.317 608.268 641.487C608.449 641.657 608.54 641.878 608.54 642.15C608.54 642.411 608.449 642.632 608.268 642.813C608.098 642.994 607.888 643.085 607.639 643.085Z" fill="black"/>
<path d="M476.579 663.273V654.348H477.735V656.779L477.616 656.354C477.866 655.674 478.285 655.158 478.874 654.807C479.464 654.444 480.195 654.263 481.067 654.263V655.436C481.022 655.436 480.977 655.436 480.931 655.436C480.886 655.424 480.841 655.419 480.795 655.419C479.855 655.419 479.118 655.708 478.585 656.286C478.053 656.852 477.786 657.663 477.786 658.717V663.273H476.579ZM486.978 663.358C486.049 663.358 485.233 663.165 484.53 662.78C483.827 662.383 483.278 661.845 482.881 661.165C482.484 660.473 482.286 659.686 482.286 658.802C482.286 657.918 482.473 657.136 482.847 656.456C483.232 655.776 483.754 655.243 484.411 654.858C485.08 654.461 485.828 654.263 486.655 654.263C487.494 654.263 488.236 654.455 488.882 654.841C489.539 655.215 490.055 655.747 490.429 656.439C490.803 657.119 490.99 657.906 490.99 658.802C490.99 658.858 490.984 658.921 490.973 658.989C490.973 659.045 490.973 659.108 490.973 659.176H483.204V658.275H490.327L489.851 658.632C489.851 657.986 489.709 657.413 489.426 656.915C489.154 656.405 488.78 656.008 488.304 655.725C487.828 655.441 487.278 655.3 486.655 655.3C486.043 655.3 485.493 655.441 485.006 655.725C484.519 656.008 484.139 656.405 483.867 656.915C483.595 657.425 483.459 658.008 483.459 658.666V658.853C483.459 659.533 483.606 660.133 483.901 660.655C484.207 661.165 484.626 661.567 485.159 661.862C485.703 662.145 486.321 662.287 487.012 662.287C487.556 662.287 488.06 662.19 488.525 661.998C489.001 661.805 489.409 661.51 489.749 661.114L490.429 661.896C490.032 662.372 489.534 662.734 488.933 662.984C488.344 663.233 487.692 663.358 486.978 663.358ZM497.153 663.358C496.269 663.358 495.475 663.165 494.773 662.78C494.081 662.383 493.537 661.845 493.141 661.165C492.744 660.473 492.546 659.686 492.546 658.802C492.546 657.906 492.744 657.119 493.141 656.439C493.537 655.759 494.081 655.226 494.773 654.841C495.475 654.455 496.269 654.263 497.153 654.263C497.912 654.263 498.598 654.41 499.21 654.705C499.822 654.999 500.303 655.441 500.655 656.031L499.754 656.643C499.448 656.189 499.068 655.855 498.615 655.64C498.161 655.424 497.668 655.317 497.136 655.317C496.501 655.317 495.929 655.464 495.419 655.759C494.909 656.042 494.506 656.444 494.212 656.966C493.917 657.487 493.77 658.099 493.77 658.802C493.77 659.504 493.917 660.116 494.212 660.638C494.506 661.159 494.909 661.567 495.419 661.862C495.929 662.145 496.501 662.287 497.136 662.287C497.668 662.287 498.161 662.179 498.615 661.964C499.068 661.748 499.448 661.42 499.754 660.978L500.655 661.59C500.303 662.168 499.822 662.61 499.21 662.916C498.598 663.21 497.912 663.358 497.153 663.358ZM506.514 663.358C505.653 663.358 504.877 663.165 504.185 662.78C503.505 662.383 502.967 661.845 502.57 661.165C502.174 660.473 501.975 659.686 501.975 658.802C501.975 657.906 502.174 657.119 502.57 656.439C502.967 655.759 503.505 655.226 504.185 654.841C504.865 654.455 505.642 654.263 506.514 654.263C507.398 654.263 508.18 654.455 508.86 654.841C509.552 655.226 510.09 655.759 510.475 656.439C510.872 657.119 511.07 657.906 511.07 658.802C511.07 659.686 510.872 660.473 510.475 661.165C510.09 661.845 509.552 662.383 508.86 662.78C508.169 663.165 507.387 663.358 506.514 663.358ZM506.514 662.287C507.16 662.287 507.733 662.145 508.231 661.862C508.73 661.567 509.121 661.159 509.404 660.638C509.699 660.105 509.846 659.493 509.846 658.802C509.846 658.099 509.699 657.487 509.404 656.966C509.121 656.444 508.73 656.042 508.231 655.759C507.733 655.464 507.166 655.317 506.531 655.317C505.897 655.317 505.33 655.464 504.831 655.759C504.333 656.042 503.936 656.444 503.641 656.966C503.347 657.487 503.199 658.099 503.199 658.802C503.199 659.493 503.347 660.105 503.641 660.638C503.936 661.159 504.333 661.567 504.831 661.862C505.33 662.145 505.891 662.287 506.514 662.287ZM513.535 663.273V654.348H514.691V656.779L514.572 656.354C514.821 655.674 515.24 655.158 515.83 654.807C516.419 654.444 517.15 654.263 518.023 654.263V655.436C517.977 655.436 517.932 655.436 517.887 655.436C517.841 655.424 517.796 655.419 517.751 655.419C516.81 655.419 516.073 655.708 515.541 656.286C515.008 656.852 514.742 657.663 514.742 658.717V663.273H513.535ZM523.695 663.358C522.845 663.358 522.08 663.165 521.4 662.78C520.731 662.394 520.204 661.862 519.819 661.182C519.434 660.49 519.241 659.697 519.241 658.802C519.241 657.895 519.434 657.102 519.819 656.422C520.204 655.742 520.731 655.215 521.4 654.841C522.08 654.455 522.845 654.263 523.695 654.263C524.477 654.263 525.174 654.438 525.786 654.79C526.409 655.141 526.902 655.657 527.265 656.337C527.639 657.005 527.826 657.827 527.826 658.802C527.826 659.765 527.645 660.587 527.282 661.267C526.919 661.947 526.426 662.468 525.803 662.831C525.191 663.182 524.488 663.358 523.695 663.358ZM523.78 662.287C524.415 662.287 524.981 662.145 525.48 661.862C525.99 661.567 526.387 661.159 526.67 660.638C526.965 660.105 527.112 659.493 527.112 658.802C527.112 658.099 526.965 657.487 526.67 656.966C526.387 656.444 525.99 656.042 525.48 655.759C524.981 655.464 524.415 655.317 523.78 655.317C523.157 655.317 522.596 655.464 522.097 655.759C521.598 656.042 521.202 656.444 520.907 656.966C520.612 657.487 520.465 658.099 520.465 658.802C520.465 659.493 520.612 660.105 520.907 660.638C521.202 661.159 521.598 661.567 522.097 661.862C522.596 662.145 523.157 662.287 523.78 662.287ZM527.146 663.273V660.587L527.265 658.785L527.095 656.983V650.659H528.302V663.273H527.146ZM534.06 663.358C533.324 663.358 532.627 663.256 531.969 663.052C531.312 662.836 530.796 662.57 530.422 662.253L530.966 661.301C531.329 661.573 531.794 661.811 532.36 662.015C532.927 662.207 533.522 662.304 534.145 662.304C534.995 662.304 535.607 662.173 535.981 661.913C536.355 661.641 536.542 661.284 536.542 660.842C536.542 660.513 536.435 660.258 536.219 660.077C536.015 659.884 535.743 659.742 535.403 659.652C535.063 659.55 534.684 659.465 534.264 659.397C533.845 659.329 533.426 659.249 533.006 659.159C532.598 659.068 532.224 658.938 531.884 658.768C531.544 658.586 531.267 658.343 531.051 658.037C530.847 657.731 530.745 657.323 530.745 656.813C530.745 656.325 530.881 655.889 531.153 655.504C531.425 655.118 531.822 654.818 532.343 654.603C532.876 654.376 533.522 654.263 534.281 654.263C534.859 654.263 535.437 654.342 536.015 654.501C536.593 654.648 537.069 654.846 537.443 655.096L536.916 656.065C536.52 655.793 536.095 655.6 535.641 655.487C535.188 655.362 534.735 655.3 534.281 655.3C533.477 655.3 532.882 655.441 532.496 655.725C532.122 655.997 531.935 656.348 531.935 656.779C531.935 657.119 532.037 657.385 532.241 657.578C532.457 657.77 532.734 657.923 533.074 658.037C533.426 658.139 533.805 658.224 534.213 658.292C534.633 658.36 535.046 658.445 535.454 658.547C535.874 658.637 536.253 658.768 536.593 658.938C536.945 659.096 537.222 659.329 537.426 659.635C537.642 659.929 537.749 660.32 537.749 660.808C537.749 661.329 537.602 661.782 537.307 662.168C537.024 662.542 536.605 662.836 536.049 663.052C535.505 663.256 534.842 663.358 534.06 663.358ZM540.219 666.571V650.659H543.33V651.662H541.426V665.568H543.33V666.571H540.219ZM549.32 663.375C548.402 663.375 547.586 663.137 546.872 662.661C546.158 662.173 545.597 661.482 545.189 660.587C544.781 659.68 544.577 658.592 544.577 657.323C544.577 656.053 544.781 654.971 545.189 654.076C545.597 653.169 546.158 652.478 546.872 652.002C547.586 651.514 548.402 651.271 549.32 651.271C550.238 651.271 551.054 651.514 551.768 652.002C552.482 652.478 553.043 653.169 553.451 654.076C553.871 654.971 554.08 656.053 554.08 657.323C554.08 658.592 553.871 659.68 553.451 660.587C553.043 661.482 552.482 662.173 551.768 662.661C551.054 663.137 550.238 663.375 549.32 663.375ZM549.32 662.253C550.023 662.253 550.635 662.066 551.156 661.692C551.678 661.306 552.086 660.751 552.38 660.026C552.675 659.289 552.822 658.388 552.822 657.323C552.822 656.257 552.675 655.362 552.38 654.637C552.086 653.9 551.678 653.345 551.156 652.971C550.635 652.585 550.023 652.393 549.32 652.393C548.64 652.393 548.034 652.585 547.501 652.971C546.969 653.345 546.555 653.9 546.26 654.637C545.966 655.362 545.818 656.257 545.818 657.323C545.818 658.388 545.966 659.289 546.26 660.026C546.555 660.751 546.969 661.306 547.501 661.692C548.034 662.066 548.64 662.253 549.32 662.253ZM558.417 666.571H555.306V665.568H557.21V651.662H555.306V650.659H558.417V666.571ZM562.163 663.358C561.914 663.358 561.699 663.267 561.517 663.086C561.347 662.904 561.262 662.683 561.262 662.423C561.262 662.151 561.347 661.93 561.517 661.76C561.699 661.59 561.914 661.505 562.163 661.505C562.413 661.505 562.622 661.59 562.792 661.76C562.974 661.93 563.064 662.151 563.064 662.423C563.064 662.683 562.974 662.904 562.792 663.086C562.622 663.267 562.413 663.358 562.163 663.358ZM569.349 663.375C568.465 663.375 567.615 663.233 566.799 662.95C565.994 662.655 565.371 662.281 564.929 661.828L565.422 660.859C565.841 661.267 566.402 661.612 567.105 661.896C567.819 662.168 568.567 662.304 569.349 662.304C570.097 662.304 570.703 662.213 571.168 662.032C571.644 661.839 571.99 661.584 572.205 661.267C572.432 660.949 572.545 660.598 572.545 660.213C572.545 659.748 572.409 659.374 572.137 659.091C571.876 658.807 571.531 658.586 571.1 658.428C570.669 658.258 570.193 658.11 569.672 657.986C569.151 657.861 568.629 657.731 568.108 657.595C567.587 657.447 567.105 657.255 566.663 657.017C566.232 656.779 565.881 656.467 565.609 656.082C565.348 655.685 565.218 655.169 565.218 654.535C565.218 653.945 565.371 653.407 565.677 652.92C565.994 652.421 566.476 652.024 567.122 651.73C567.768 651.424 568.595 651.271 569.604 651.271C570.273 651.271 570.936 651.367 571.593 651.56C572.25 651.741 572.817 651.996 573.293 652.325L572.868 653.328C572.358 652.988 571.814 652.738 571.236 652.58C570.669 652.421 570.12 652.342 569.587 652.342C568.873 652.342 568.284 652.438 567.819 652.631C567.354 652.823 567.009 653.084 566.782 653.413C566.567 653.73 566.459 654.093 566.459 654.501C566.459 654.965 566.589 655.339 566.85 655.623C567.122 655.906 567.473 656.127 567.904 656.286C568.346 656.444 568.828 656.586 569.349 656.711C569.87 656.835 570.386 656.971 570.896 657.119C571.417 657.266 571.893 657.459 572.324 657.697C572.766 657.923 573.117 658.229 573.378 658.615C573.65 659 573.786 659.504 573.786 660.128C573.786 660.706 573.627 661.244 573.31 661.743C572.993 662.23 572.505 662.627 571.848 662.933C571.202 663.227 570.369 663.375 569.349 663.375ZM579.094 663.358C578.255 663.358 577.609 663.131 577.156 662.678C576.703 662.224 576.476 661.584 576.476 660.757V652.376H577.683V660.689C577.683 661.21 577.813 661.612 578.074 661.896C578.346 662.179 578.731 662.321 579.23 662.321C579.763 662.321 580.205 662.168 580.556 661.862L580.981 662.729C580.743 662.944 580.454 663.103 580.114 663.205C579.785 663.307 579.445 663.358 579.094 663.358ZM574.878 655.351V654.348H580.403V655.351H574.878ZM588.771 663.273V661.301L588.72 660.978V657.68C588.72 656.92 588.505 656.337 588.074 655.929C587.655 655.521 587.026 655.317 586.187 655.317C585.609 655.317 585.059 655.413 584.538 655.606C584.017 655.798 583.575 656.053 583.212 656.371L582.668 655.47C583.121 655.084 583.665 654.79 584.3 654.586C584.935 654.37 585.603 654.263 586.306 654.263C587.462 654.263 588.352 654.552 588.975 655.13C589.61 655.696 589.927 656.563 589.927 657.731V663.273H588.771ZM585.694 663.358C585.025 663.358 584.442 663.25 583.943 663.035C583.456 662.808 583.082 662.502 582.821 662.117C582.56 661.72 582.43 661.267 582.43 660.757C582.43 660.292 582.538 659.873 582.753 659.499C582.98 659.113 583.342 658.807 583.841 658.581C584.351 658.343 585.031 658.224 585.881 658.224H588.958V659.125H585.915C585.054 659.125 584.453 659.278 584.113 659.584C583.784 659.89 583.62 660.269 583.62 660.723C583.62 661.233 583.818 661.641 584.215 661.947C584.612 662.253 585.167 662.406 585.881 662.406C586.561 662.406 587.145 662.253 587.632 661.947C588.131 661.629 588.493 661.176 588.72 660.587L588.992 661.42C588.765 662.009 588.369 662.479 587.802 662.831C587.247 663.182 586.544 663.358 585.694 663.358ZM597.013 666.656C596.197 666.656 595.415 666.537 594.667 666.299C593.919 666.061 593.313 665.721 592.848 665.279L593.46 664.361C593.88 664.735 594.395 665.029 595.007 665.245C595.631 665.471 596.288 665.585 596.979 665.585C598.113 665.585 598.946 665.318 599.478 664.786C600.011 664.264 600.277 663.448 600.277 662.338V660.111L600.447 658.581L600.328 657.051V654.348H601.484V662.185C601.484 663.726 601.105 664.854 600.345 665.568C599.597 666.293 598.487 666.656 597.013 666.656ZM596.792 662.933C595.942 662.933 595.177 662.751 594.497 662.389C593.817 662.015 593.279 661.499 592.882 660.842C592.497 660.184 592.304 659.431 592.304 658.581C592.304 657.731 592.497 656.983 592.882 656.337C593.279 655.679 593.817 655.169 594.497 654.807C595.177 654.444 595.942 654.263 596.792 654.263C597.586 654.263 598.3 654.427 598.934 654.756C599.569 655.084 600.073 655.572 600.447 656.218C600.821 656.864 601.008 657.651 601.008 658.581C601.008 659.51 600.821 660.298 600.447 660.944C600.073 661.59 599.569 662.083 598.934 662.423C598.3 662.763 597.586 662.933 596.792 662.933ZM596.911 661.862C597.569 661.862 598.152 661.726 598.662 661.454C599.172 661.17 599.575 660.785 599.869 660.298C600.164 659.799 600.311 659.227 600.311 658.581C600.311 657.935 600.164 657.368 599.869 656.881C599.575 656.393 599.172 656.014 598.662 655.742C598.152 655.458 597.569 655.317 596.911 655.317C596.265 655.317 595.682 655.458 595.16 655.742C594.65 656.014 594.248 656.393 593.953 656.881C593.67 657.368 593.528 657.935 593.528 658.581C593.528 659.227 593.67 659.799 593.953 660.298C594.248 660.785 594.65 661.17 595.16 661.454C595.682 661.726 596.265 661.862 596.911 661.862ZM608.634 663.358C607.705 663.358 606.889 663.165 606.186 662.78C605.483 662.383 604.934 661.845 604.537 661.165C604.14 660.473 603.942 659.686 603.942 658.802C603.942 657.918 604.129 657.136 604.503 656.456C604.888 655.776 605.41 655.243 606.067 654.858C606.736 654.461 607.484 654.263 608.311 654.263C609.15 654.263 609.892 654.455 610.538 654.841C611.195 655.215 611.711 655.747 612.085 656.439C612.459 657.119 612.646 657.906 612.646 658.802C612.646 658.858 612.64 658.921 612.629 658.989C612.629 659.045 612.629 659.108 612.629 659.176H604.86V658.275H611.983L611.507 658.632C611.507 657.986 611.365 657.413 611.082 656.915C610.81 656.405 610.436 656.008 609.96 655.725C609.484 655.441 608.934 655.3 608.311 655.3C607.699 655.3 607.149 655.441 606.662 655.725C606.175 656.008 605.795 656.405 605.523 656.915C605.251 657.425 605.115 658.008 605.115 658.666V658.853C605.115 659.533 605.262 660.133 605.557 660.655C605.863 661.165 606.282 661.567 606.815 661.862C607.359 662.145 607.977 662.287 608.668 662.287C609.212 662.287 609.716 662.19 610.181 661.998C610.657 661.805 611.065 661.51 611.405 661.114L612.085 661.896C611.688 662.372 611.19 662.734 610.589 662.984C610 663.233 609.348 663.358 608.634 663.358ZM615.358 663.273V651.373H616.395L624.606 661.709H624.062V651.373H625.303V663.273H624.266L616.072 652.937H616.616V663.273H615.358ZM482.172 684.273V682.301L482.121 681.978V678.68C482.121 677.92 481.906 677.337 481.475 676.929C481.056 676.521 480.427 676.317 479.588 676.317C479.01 676.317 478.461 676.413 477.939 676.606C477.418 676.798 476.976 677.053 476.613 677.371L476.069 676.47C476.523 676.084 477.067 675.79 477.701 675.586C478.336 675.37 479.005 675.263 479.707 675.263C480.863 675.263 481.753 675.552 482.376 676.13C483.011 676.696 483.328 677.563 483.328 678.731V684.273H482.172ZM479.095 684.358C478.427 684.358 477.843 684.25 477.344 684.035C476.857 683.808 476.483 683.502 476.222 683.117C475.962 682.72 475.831 682.267 475.831 681.757C475.831 681.292 475.939 680.873 476.154 680.499C476.381 680.113 476.744 679.807 477.242 679.581C477.752 679.343 478.432 679.224 479.282 679.224H482.359V680.125H479.316C478.455 680.125 477.854 680.278 477.514 680.584C477.186 680.89 477.021 681.269 477.021 681.723C477.021 682.233 477.22 682.641 477.616 682.947C478.013 683.253 478.568 683.406 479.282 683.406C479.962 683.406 480.546 683.253 481.033 682.947C481.532 682.629 481.895 682.176 482.121 681.587L482.393 682.42C482.167 683.009 481.77 683.479 481.203 683.831C480.648 684.182 479.945 684.358 479.095 684.358ZM497.759 675.263C498.484 675.263 499.113 675.404 499.646 675.688C500.19 675.96 500.609 676.379 500.904 676.946C501.21 677.512 501.363 678.226 501.363 679.088V684.273H500.156V679.207C500.156 678.266 499.929 677.558 499.476 677.082C499.034 676.594 498.405 676.351 497.589 676.351C496.977 676.351 496.444 676.481 495.991 676.742C495.549 676.991 495.203 677.359 494.954 677.847C494.716 678.323 494.597 678.901 494.597 679.581V684.273H493.39V679.207C493.39 678.266 493.163 677.558 492.71 677.082C492.256 676.594 491.622 676.351 490.806 676.351C490.205 676.351 489.678 676.481 489.225 676.742C488.771 676.991 488.42 677.359 488.171 677.847C487.933 678.323 487.814 678.901 487.814 679.581V684.273H486.607V675.348H487.763V677.762L487.576 677.337C487.848 676.691 488.284 676.186 488.885 675.824C489.497 675.45 490.216 675.263 491.044 675.263C491.916 675.263 492.659 675.484 493.271 675.926C493.883 676.356 494.279 677.008 494.461 677.881L493.985 677.694C494.245 676.968 494.704 676.385 495.362 675.943C496.03 675.489 496.829 675.263 497.759 675.263ZM508.427 684.358C507.498 684.358 506.682 684.165 505.979 683.78C505.276 683.383 504.727 682.845 504.33 682.165C503.933 681.473 503.735 680.686 503.735 679.802C503.735 678.918 503.922 678.136 504.296 677.456C504.681 676.776 505.203 676.243 505.86 675.858C506.529 675.461 507.277 675.263 508.104 675.263C508.943 675.263 509.685 675.455 510.331 675.841C510.988 676.215 511.504 676.747 511.878 677.439C512.252 678.119 512.439 678.906 512.439 679.802C512.439 679.858 512.433 679.921 512.422 679.989C512.422 680.045 512.422 680.108 512.422 680.176H504.653V679.275H511.776L511.3 679.632C511.3 678.986 511.158 678.413 510.875 677.915C510.603 677.405 510.229 677.008 509.753 676.725C509.277 676.441 508.727 676.3 508.104 676.3C507.492 676.3 506.942 676.441 506.455 676.725C505.968 677.008 505.588 677.405 505.316 677.915C505.044 678.425 504.908 679.008 504.908 679.666V679.853C504.908 680.533 505.055 681.133 505.35 681.655C505.656 682.165 506.075 682.567 506.608 682.862C507.152 683.145 507.77 683.287 508.461 683.287C509.005 683.287 509.509 683.19 509.974 682.998C510.45 682.805 510.858 682.51 511.198 682.114L511.878 682.896C511.481 683.372 510.983 683.734 510.382 683.984C509.793 684.233 509.141 684.358 508.427 684.358Z" fill="black"/>
<mask id="path-54-inside-1_120_532" fill="white">
<path d="M753.582 100.292C744.31 91.0197 732.497 84.7055 719.637 82.1474C706.776 79.5893 693.446 80.9022 681.332 85.9201C669.218 90.938 658.863 99.4355 651.578 110.338C644.294 121.241 640.405 134.059 640.405 147.171C640.405 160.283 644.294 173.101 651.578 184.004C658.863 194.906 669.218 203.404 681.332 208.422C693.446 213.44 706.776 214.753 719.637 212.194C732.497 209.636 744.31 203.322 753.582 194.05L706.703 147.171L753.582 100.292Z"/>
</mask>
<path d="M753.582 100.292C744.31 91.0197 732.497 84.7055 719.637 82.1474C706.776 79.5893 693.446 80.9022 681.332 85.9201C669.218 90.938 658.863 99.4355 651.578 110.338C644.294 121.241 640.405 134.059 640.405 147.171C640.405 160.283 644.294 173.101 651.578 184.004C658.863 194.906 669.218 203.404 681.332 208.422C693.446 213.44 706.776 214.753 719.637 212.194C732.497 209.636 744.31 203.322 753.582 194.05L706.703 147.171L753.582 100.292Z" fill="#FDFDFD" stroke="#1E1037" stroke-width="2" mask="url(#path-54-inside-1_120_532)"/>
<path d="M699.011 120.161C703.966 125.196 714.156 143.714 709.121 148.67C704.086 153.625 685.732 143.141 680.777 138.106C675.821 133.071 675.886 124.972 680.921 120.017C685.956 115.061 694.055 115.126 699.011 120.161Z" fill="#1E1037"/>
<path d="M736.472 121.752C741.427 126.787 741.362 134.886 736.327 139.842C731.292 144.797 714.076 153.705 709.121 148.67C704.165 143.635 713.347 126.563 718.382 121.608C723.417 116.652 731.516 116.717 736.472 121.752Z" fill="#1E1037"/>
<path d="M736.184 157.931C741.139 162.966 741.075 171.065 736.039 176.021C731.004 180.976 722.905 180.912 717.95 175.877C712.994 170.841 704.086 153.625 709.121 148.67C714.157 143.714 731.228 152.896 736.184 157.931Z" fill="#1E1037"/>
<path d="M709.121 148.67C714.076 153.705 704.895 170.777 699.86 175.732C694.825 180.688 686.726 180.623 681.77 175.588C676.815 170.553 676.879 162.454 681.914 157.498C686.95 152.543 704.166 143.635 709.121 148.67Z" fill="#1E1037"/>
<path d="M406.248 615.015C406.248 615.015 406.248 529.439 406.248 517.214C406.248 504.989 419.414 495.115 428.818 494.645L447.86 494.645L466.903 494.645L705.762 494.645" stroke="#1E1037" stroke-opacity="0.1" stroke-width="2.6"/>
<circle cx="86.5156" cy="371.454" r="0.940389" fill="#1E1037"/>
<circle cx="86.5156" cy="359.229" r="0.940389" fill="#1E1037"/>
<circle cx="86.5156" cy="347.004" r="0.940389" fill="#1E1037"/>
<circle cx="86.5156" cy="334.779" r="0.940389" fill="#1E1037"/>
<circle cx="86.5156" cy="322.554" r="0.940389" fill="#1E1037"/>
<circle cx="86.5156" cy="310.328" r="0.940389" fill="#1E1037"/>
<circle cx="86.5156" cy="298.103" r="0.940389" fill="#1E1037"/>
<circle cx="86.5156" cy="285.878" r="0.940389" fill="#1E1037"/>
<circle cx="86.5156" cy="273.653" r="0.940389" fill="#1E1037"/>
<circle cx="86.5156" cy="261.428" r="0.940389" fill="#1E1037"/>
<circle cx="86.5156" cy="249.203" r="0.940389" fill="#1E1037"/>
<circle cx="86.5156" cy="236.978" r="0.940389" fill="#1E1037"/>
<circle cx="86.5156" cy="224.753" r="0.940389" fill="#1E1037"/>
<circle cx="86.5156" cy="212.528" r="0.940389" fill="#1E1037"/>
<circle cx="86.5156" cy="200.303" r="0.940389" fill="#1E1037"/>
<circle cx="86.5156" cy="188.078" r="0.940389" fill="#1E1037"/>
<circle cx="86.5156" cy="175.853" r="0.940389" fill="#1E1037"/>
<circle cx="86.5156" cy="163.628" r="0.940389" fill="#1E1037"/>
<circle cx="86.5156" cy="151.403" r="0.940389" fill="#1E1037"/>
<circle cx="92.1582" cy="365.811" r="0.940389" fill="#1E1037"/>
<circle cx="92.1582" cy="353.586" r="0.940389" fill="#1E1037"/>
<circle cx="92.1582" cy="341.361" r="0.940389" fill="#1E1037"/>
<circle cx="92.1582" cy="329.136" r="0.940389" fill="#1E1037"/>
<circle cx="92.1582" cy="316.911" r="0.940389" fill="#1E1037"/>
<circle cx="92.1582" cy="304.686" r="0.940389" fill="#1E1037"/>
<circle cx="92.1582" cy="292.461" r="0.940389" fill="#1E1037"/>
<circle cx="92.1582" cy="280.236" r="0.940389" fill="#1E1037"/>
<circle cx="92.1582" cy="268.011" r="0.940389" fill="#1E1037"/>
<circle cx="92.1582" cy="255.786" r="0.940389" fill="#1E1037"/>
<circle cx="92.1582" cy="243.561" r="0.940389" fill="#1E1037"/>
<circle cx="92.1582" cy="231.336" r="0.940389" fill="#1E1037"/>
<circle cx="92.1582" cy="219.111" r="0.940389" fill="#1E1037"/>
<circle cx="92.1582" cy="206.886" r="0.940389" fill="#1E1037"/>
<circle cx="92.1582" cy="194.661" r="0.940389" fill="#1E1037"/>
<circle cx="92.1582" cy="182.436" r="0.940389" fill="#1E1037"/>
<circle cx="92.1582" cy="170.21" r="0.940389" fill="#1E1037"/>
<circle cx="92.1582" cy="157.985" r="0.940389" fill="#1E1037"/>
<circle cx="92.1582" cy="145.76" r="0.940389" fill="#1E1037"/>
<circle cx="98.7407" cy="371.454" r="0.940389" fill="#1E1037"/>
<circle cx="98.7407" cy="359.229" r="0.940389" fill="#1E1037"/>
<circle cx="98.7407" cy="347.004" r="0.940389" fill="#1E1037"/>
<circle cx="98.7407" cy="334.779" r="0.940389" fill="#1E1037"/>
<circle cx="98.7407" cy="322.554" r="0.940389" fill="#1E1037"/>
<circle cx="98.7407" cy="310.328" r="0.940389" fill="#1E1037"/>
<circle cx="98.7407" cy="298.103" r="0.940389" fill="#1E1037"/>
<circle cx="98.7407" cy="285.878" r="0.940389" fill="#1E1037"/>
<circle cx="98.7407" cy="273.653" r="0.940389" fill="#1E1037"/>
<circle cx="98.7407" cy="261.428" r="0.940389" fill="#1E1037"/>
<circle cx="98.7407" cy="249.203" r="0.940389" fill="#1E1037"/>
<circle cx="98.7407" cy="236.978" r="0.940389" fill="#1E1037"/>
<circle cx="98.7407" cy="224.753" r="0.940389" fill="#1E1037"/>
<circle cx="98.7407" cy="212.528" r="0.940389" fill="#1E1037"/>
<circle cx="98.7407" cy="200.303" r="0.940389" fill="#1E1037"/>
<circle cx="98.7407" cy="188.078" r="0.940389" fill="#1E1037"/>
<circle cx="98.7407" cy="175.853" r="0.940389" fill="#1E1037"/>
<circle cx="98.7407" cy="163.628" r="0.940389" fill="#1E1037"/>
<circle cx="98.7407" cy="151.403" r="0.940389" fill="#1E1037"/>
<circle cx="105.324" cy="365.811" r="0.940389" fill="#1E1037"/>
<circle cx="105.324" cy="353.586" r="0.940389" fill="#1E1037"/>
<circle cx="105.324" cy="341.361" r="0.940389" fill="#1E1037"/>
<circle cx="105.324" cy="329.136" r="0.940389" fill="#1E1037"/>
<circle cx="105.324" cy="316.911" r="0.940389" fill="#1E1037"/>
<circle cx="105.324" cy="304.686" r="0.940389" fill="#1E1037"/>
<circle cx="105.324" cy="292.461" r="0.940389" fill="#1E1037"/>
<circle cx="105.324" cy="280.236" r="0.940389" fill="#1E1037"/>
<circle cx="105.324" cy="268.011" r="0.940389" fill="#1E1037"/>
<circle cx="105.324" cy="255.786" r="0.940389" fill="#1E1037"/>
<circle cx="105.324" cy="243.561" r="0.940389" fill="#1E1037"/>
<circle cx="105.324" cy="231.336" r="0.940389" fill="#1E1037"/>
<circle cx="105.324" cy="219.111" r="0.940389" fill="#1E1037"/>
<circle cx="105.324" cy="206.886" r="0.940389" fill="#1E1037"/>
<circle cx="105.324" cy="194.661" r="0.940389" fill="#1E1037"/>
<circle cx="105.324" cy="182.436" r="0.940389" fill="#1E1037"/>
<circle cx="105.324" cy="170.21" r="0.940389" fill="#1E1037"/>
<circle cx="105.324" cy="157.985" r="0.940389" fill="#1E1037"/>
<circle cx="105.324" cy="145.76" r="0.940389" fill="#1E1037"/>
<circle cx="110.966" cy="371.454" r="0.940389" fill="#1E1037"/>
<circle cx="110.966" cy="359.229" r="0.940389" fill="#1E1037"/>
<circle cx="110.966" cy="347.004" r="0.940389" fill="#1E1037"/>
<circle cx="110.966" cy="334.779" r="0.940389" fill="#1E1037"/>
<circle cx="110.966" cy="322.554" r="0.940389" fill="#1E1037"/>
<circle cx="110.966" cy="310.328" r="0.940389" fill="#1E1037"/>
<circle cx="110.966" cy="298.103" r="0.940389" fill="#1E1037"/>
<circle cx="110.966" cy="285.878" r="0.940389" fill="#1E1037"/>
<circle cx="110.966" cy="273.653" r="0.940389" fill="#1E1037"/>
<circle cx="110.966" cy="261.428" r="0.940389" fill="#1E1037"/>
<circle cx="110.966" cy="249.203" r="0.940389" fill="#1E1037"/>
<circle cx="110.966" cy="236.978" r="0.940389" fill="#1E1037"/>
<circle cx="110.966" cy="224.753" r="0.940389" fill="#1E1037"/>
<circle cx="110.966" cy="212.528" r="0.940389" fill="#1E1037"/>
<circle cx="110.966" cy="200.303" r="0.940389" fill="#1E1037"/>
<circle cx="110.966" cy="188.078" r="0.940389" fill="#1E1037"/>
<circle cx="110.966" cy="175.853" r="0.940389" fill="#1E1037"/>
<circle cx="110.966" cy="163.628" r="0.940389" fill="#1E1037"/>
<circle cx="110.966" cy="151.403" r="0.940389" fill="#1E1037"/>
<circle cx="116.608" cy="365.811" r="0.940389" fill="#1E1037"/>
<circle cx="116.608" cy="353.586" r="0.940389" fill="#1E1037"/>
<circle cx="116.608" cy="341.361" r="0.940389" fill="#1E1037"/>
<circle cx="116.608" cy="329.136" r="0.940389" fill="#1E1037"/>
<circle cx="116.608" cy="316.911" r="0.940389" fill="#1E1037"/>
<circle cx="116.608" cy="304.686" r="0.940389" fill="#1E1037"/>
<circle cx="116.608" cy="292.461" r="0.940389" fill="#1E1037"/>
<circle cx="116.608" cy="280.236" r="0.940389" fill="#1E1037"/>
<circle cx="116.608" cy="268.011" r="0.940389" fill="#1E1037"/>
<circle cx="116.608" cy="255.786" r="0.940389" fill="#1E1037"/>
<circle cx="116.608" cy="243.561" r="0.940389" fill="#1E1037"/>
<circle cx="116.608" cy="231.336" r="0.940389" fill="#1E1037"/>
<circle cx="116.608" cy="219.111" r="0.940389" fill="#1E1037"/>
<circle cx="116.608" cy="206.886" r="0.940389" fill="#1E1037"/>
<circle cx="116.608" cy="194.661" r="0.940389" fill="#1E1037"/>
<circle cx="116.608" cy="182.436" r="0.940389" fill="#1E1037"/>
<circle cx="116.608" cy="170.21" r="0.940389" fill="#1E1037"/>
<circle cx="116.608" cy="157.985" r="0.940389" fill="#1E1037"/>
<circle cx="116.608" cy="145.76" r="0.940389" fill="#1E1037"/>
<circle cx="110.966" cy="140.118" r="0.940389" fill="#1E1037"/>
<circle cx="98.7407" cy="140.118" r="0.940389" fill="#1E1037"/>
<circle cx="105.323" cy="132.595" r="0.940389" fill="#1E1037"/>
<circle cx="116.608" cy="132.595" r="0.940389" fill="#1E1037"/>
<circle cx="123.191" cy="139.178" r="0.940389" fill="#1E1037"/>
<circle cx="123.191" cy="371.454" r="0.940389" fill="#1E1037"/>
<circle cx="123.191" cy="359.229" r="0.940389" fill="#1E1037"/>
<circle cx="123.191" cy="347.004" r="0.940389" fill="#1E1037"/>
<circle cx="123.191" cy="334.779" r="0.940389" fill="#1E1037"/>
<circle cx="123.191" cy="322.554" r="0.940389" fill="#1E1037"/>
<circle cx="123.191" cy="310.328" r="0.940389" fill="#1E1037"/>
<circle cx="123.191" cy="298.103" r="0.940389" fill="#1E1037"/>
<circle cx="123.191" cy="285.878" r="0.940389" fill="#1E1037"/>
<circle cx="123.191" cy="273.653" r="0.940389" fill="#1E1037"/>
<circle cx="123.191" cy="261.428" r="0.940389" fill="#1E1037"/>
<circle cx="123.191" cy="249.203" r="0.940389" fill="#1E1037"/>
<circle cx="123.191" cy="236.978" r="0.940389" fill="#1E1037"/>
<circle cx="123.191" cy="224.753" r="0.940389" fill="#1E1037"/>
<circle cx="123.191" cy="212.528" r="0.940389" fill="#1E1037"/>
<circle cx="123.191" cy="200.303" r="0.940389" fill="#1E1037"/>
<circle cx="123.191" cy="188.078" r="0.940389" fill="#1E1037"/>
<circle cx="123.191" cy="175.853" r="0.940389" fill="#1E1037"/>
<circle cx="123.191" cy="163.628" r="0.940389" fill="#1E1037"/>
<circle cx="123.191" cy="151.403" r="0.940389" fill="#1E1037"/>
<circle cx="129.774" cy="352.646" r="0.940389" fill="#1E1037"/>
<circle cx="129.774" cy="340.421" r="0.940389" fill="#1E1037"/>
<circle cx="129.774" cy="328.196" r="0.940389" fill="#1E1037"/>
<circle cx="129.774" cy="315.971" r="0.940389" fill="#1E1037"/>
<circle cx="129.774" cy="303.746" r="0.940389" fill="#1E1037"/>
<circle cx="129.774" cy="291.521" r="0.940389" fill="#1E1037"/>
<circle cx="129.774" cy="279.296" r="0.940389" fill="#1E1037"/>
<circle cx="129.774" cy="267.071" r="0.940389" fill="#1E1037"/>
<circle cx="129.774" cy="254.846" r="0.940389" fill="#1E1037"/>
<circle cx="129.774" cy="242.62" r="0.940389" fill="#1E1037"/>
<circle cx="129.774" cy="230.395" r="0.940389" fill="#1E1037"/>
<circle cx="129.774" cy="218.17" r="0.940389" fill="#1E1037"/>
<circle cx="129.774" cy="205.945" r="0.940389" fill="#1E1037"/>
<circle cx="129.774" cy="193.72" r="0.940389" fill="#1E1037"/>
<circle cx="129.774" cy="181.495" r="0.940389" fill="#1E1037"/>
<circle cx="129.774" cy="169.27" r="0.940389" fill="#1E1037"/>
<circle cx="129.774" cy="157.045" r="0.940389" fill="#1E1037"/>
<circle cx="129.774" cy="144.82" r="0.940389" fill="#1E1037"/>
<circle cx="129.774" cy="132.595" r="0.940389" fill="#1E1037"/>
<circle cx="135.416" cy="347.004" r="0.940389" fill="#1E1037"/>
<circle cx="135.416" cy="334.779" r="0.940389" fill="#1E1037"/>
<circle cx="135.416" cy="322.554" r="0.940389" fill="#1E1037"/>
<circle cx="135.416" cy="310.328" r="0.940389" fill="#1E1037"/>
<circle cx="135.416" cy="298.103" r="0.940389" fill="#1E1037"/>
<circle cx="135.416" cy="285.878" r="0.940389" fill="#1E1037"/>
<circle cx="135.416" cy="273.653" r="0.940389" fill="#1E1037"/>
<circle cx="135.416" cy="261.428" r="0.940389" fill="#1E1037"/>
<circle cx="135.416" cy="249.203" r="0.940389" fill="#1E1037"/>
<circle cx="135.416" cy="236.978" r="0.940389" fill="#1E1037"/>
<circle cx="135.416" cy="224.753" r="0.940389" fill="#1E1037"/>
<circle cx="135.416" cy="212.528" r="0.940389" fill="#1E1037"/>
<circle cx="135.416" cy="200.303" r="0.940389" fill="#1E1037"/>
<circle cx="135.416" cy="188.078" r="0.940389" fill="#1E1037"/>
<circle cx="135.416" cy="175.853" r="0.940389" fill="#1E1037"/>
<circle cx="135.416" cy="163.628" r="0.940389" fill="#1E1037"/>
<circle cx="135.416" cy="151.403" r="0.940389" fill="#1E1037"/>
<circle cx="135.416" cy="139.178" r="0.940389" fill="#1E1037"/>
<circle cx="135.416" cy="126.953" r="0.940389" fill="#1E1037"/>
<circle cx="141.999" cy="328.196" r="0.940389" fill="#1E1037"/>
<circle cx="141.999" cy="315.971" r="0.940389" fill="#1E1037"/>
<circle cx="141.999" cy="303.746" r="0.940389" fill="#1E1037"/>
<circle cx="141.999" cy="291.521" r="0.940389" fill="#1E1037"/>
<circle cx="141.999" cy="279.296" r="0.940389" fill="#1E1037"/>
<circle cx="141.999" cy="267.071" r="0.940389" fill="#1E1037"/>
<circle cx="141.999" cy="254.846" r="0.940389" fill="#1E1037"/>
<circle cx="141.999" cy="242.62" r="0.940389" fill="#1E1037"/>
<circle cx="141.999" cy="230.395" r="0.940389" fill="#1E1037"/>
<circle cx="141.999" cy="218.17" r="0.940389" fill="#1E1037"/>
<circle cx="141.999" cy="205.945" r="0.940389" fill="#1E1037"/>
<circle cx="141.999" cy="193.72" r="0.940389" fill="#1E1037"/>
<circle cx="141.999" cy="181.495" r="0.940389" fill="#1E1037"/>
<circle cx="141.999" cy="169.27" r="0.940389" fill="#1E1037"/>
<circle cx="141.999" cy="157.045" r="0.940389" fill="#1E1037"/>
<circle cx="141.999" cy="144.82" r="0.940389" fill="#1E1037"/>
<circle cx="141.999" cy="132.595" r="0.940389" fill="#1E1037"/>
<circle cx="148.581" cy="309.388" r="0.940389" fill="#1E1037"/>
<circle cx="148.581" cy="297.163" r="0.940389" fill="#1E1037"/>
<circle cx="148.581" cy="284.938" r="0.940389" fill="#1E1037"/>
<circle cx="148.581" cy="272.713" r="0.940389" fill="#1E1037"/>
<circle cx="148.581" cy="260.488" r="0.940389" fill="#1E1037"/>
<circle cx="148.581" cy="248.263" r="0.940389" fill="#1E1037"/>
<circle cx="148.581" cy="236.038" r="0.940389" fill="#1E1037"/>
<circle cx="148.581" cy="223.813" r="0.940389" fill="#1E1037"/>
<circle cx="148.581" cy="211.588" r="0.940389" fill="#1E1037"/>
<circle cx="148.581" cy="199.363" r="0.940389" fill="#1E1037"/>
<circle cx="148.581" cy="188.078" r="0.940389" fill="#1E1037"/>
<circle cx="148.581" cy="174.912" r="0.940389" fill="#1E1037"/>
<circle cx="148.581" cy="162.687" r="0.940389" fill="#1E1037"/>
<circle cx="148.581" cy="150.462" r="0.940389" fill="#1E1037"/>
<circle cx="148.581" cy="138.237" r="0.940389" fill="#1E1037"/>
<circle cx="155.164" cy="132.595" r="0.940389" transform="rotate(90 155.164 132.595)" fill="#1E1037"/>
<circle cx="167.389" cy="132.595" r="0.940389" transform="rotate(90 167.389 132.595)" fill="#1E1037"/>
<circle cx="179.614" cy="132.595" r="0.940389" transform="rotate(90 179.614 132.595)" fill="#1E1037"/>
<circle cx="191.839" cy="132.595" r="0.940389" transform="rotate(90 191.839 132.595)" fill="#1E1037"/>
<circle cx="204.064" cy="132.595" r="0.940389" transform="rotate(90 204.064 132.595)" fill="#1E1037"/>
<circle cx="216.29" cy="132.595" r="0.940389" transform="rotate(90 216.29 132.595)" fill="#1E1037"/>
<circle cx="228.515" cy="132.595" r="0.940389" transform="rotate(90 228.515 132.595)" fill="#1E1037"/>
<circle cx="240.74" cy="132.595" r="0.940389" transform="rotate(90 240.74 132.595)" fill="#1E1037"/>
<circle cx="252.965" cy="132.595" r="0.940389" transform="rotate(90 252.965 132.595)" fill="#1E1037"/>
<circle cx="265.19" cy="132.595" r="0.940389" transform="rotate(90 265.19 132.595)" fill="#1E1037"/>
<circle cx="277.415" cy="132.595" r="0.940389" transform="rotate(90 277.415 132.595)" fill="#1E1037"/>
<circle cx="289.64" cy="132.595" r="0.940389" transform="rotate(90 289.64 132.595)" fill="#1E1037"/>
<circle cx="301.865" cy="132.595" r="0.940389" transform="rotate(90 301.865 132.595)" fill="#1E1037"/>
<circle cx="314.09" cy="132.595" r="0.940389" transform="rotate(90 314.09 132.595)" fill="#1E1037"/>
<circle cx="326.315" cy="132.595" r="0.940389" transform="rotate(90 326.315 132.595)" fill="#1E1037"/>
<circle cx="160.807" cy="138.237" r="0.940389" transform="rotate(90 160.807 138.237)" fill="#1E1037"/>
<circle cx="173.032" cy="138.237" r="0.940389" transform="rotate(90 173.032 138.237)" fill="#1E1037"/>
<circle cx="185.257" cy="138.237" r="0.940389" transform="rotate(90 185.257 138.237)" fill="#1E1037"/>
<circle cx="197.482" cy="138.237" r="0.940389" transform="rotate(90 197.482 138.237)" fill="#1E1037"/>
<circle cx="209.707" cy="138.237" r="0.940389" transform="rotate(90 209.707 138.237)" fill="#1E1037"/>
<circle cx="221.932" cy="138.237" r="0.940389" transform="rotate(90 221.932 138.237)" fill="#1E1037"/>
<circle cx="234.157" cy="138.237" r="0.940389" transform="rotate(90 234.157 138.237)" fill="#1E1037"/>
<circle cx="246.382" cy="138.237" r="0.940389" transform="rotate(90 246.382 138.237)" fill="#1E1037"/>
<circle cx="258.607" cy="138.237" r="0.940389" transform="rotate(90 258.607 138.237)" fill="#1E1037"/>
<circle cx="270.832" cy="138.237" r="0.940389" transform="rotate(90 270.832 138.237)" fill="#1E1037"/>
<circle cx="283.057" cy="138.237" r="0.940389" transform="rotate(90 283.057 138.237)" fill="#1E1037"/>
<circle cx="295.282" cy="138.237" r="0.940389" transform="rotate(90 295.282 138.237)" fill="#1E1037"/>
<circle cx="307.507" cy="138.237" r="0.940389" transform="rotate(90 307.507 138.237)" fill="#1E1037"/>
<circle cx="319.732" cy="138.237" r="0.940389" transform="rotate(90 319.732 138.237)" fill="#1E1037"/>
<circle cx="155.164" cy="144.82" r="0.940389" transform="rotate(90 155.164 144.82)" fill="#1E1037"/>
<circle cx="167.389" cy="144.82" r="0.940389" transform="rotate(90 167.389 144.82)" fill="#1E1037"/>
<circle cx="179.614" cy="144.82" r="0.940389" transform="rotate(90 179.614 144.82)" fill="#1E1037"/>
<circle cx="191.839" cy="144.82" r="0.940389" transform="rotate(90 191.839 144.82)" fill="#1E1037"/>
<circle cx="204.064" cy="144.82" r="0.940389" transform="rotate(90 204.064 144.82)" fill="#1E1037"/>
<circle cx="216.29" cy="144.82" r="0.940389" transform="rotate(90 216.29 144.82)" fill="#1E1037"/>
<circle cx="228.515" cy="144.82" r="0.940389" transform="rotate(90 228.515 144.82)" fill="#1E1037"/>
<circle cx="240.74" cy="144.82" r="0.940389" transform="rotate(90 240.74 144.82)" fill="#1E1037"/>
<circle cx="252.965" cy="144.82" r="0.940389" transform="rotate(90 252.965 144.82)" fill="#1E1037"/>
<circle cx="265.19" cy="144.82" r="0.940389" transform="rotate(90 265.19 144.82)" fill="#1E1037"/>
<circle cx="277.415" cy="144.82" r="0.940389" transform="rotate(90 277.415 144.82)" fill="#1E1037"/>
<circle cx="289.64" cy="144.82" r="0.940389" transform="rotate(90 289.64 144.82)" fill="#1E1037"/>
<circle cx="301.865" cy="144.82" r="0.940389" transform="rotate(90 301.865 144.82)" fill="#1E1037"/>
<circle cx="314.09" cy="144.82" r="0.940389" transform="rotate(90 314.09 144.82)" fill="#1E1037"/>
<circle cx="326.315" cy="144.82" r="0.940389" transform="rotate(90 326.315 144.82)" fill="#1E1037"/>
<circle cx="160.807" cy="151.403" r="0.940389" transform="rotate(90 160.807 151.403)" fill="#1E1037"/>
<circle cx="173.032" cy="151.403" r="0.940389" transform="rotate(90 173.032 151.403)" fill="#1E1037"/>
<circle cx="185.257" cy="151.403" r="0.940389" transform="rotate(90 185.257 151.403)" fill="#1E1037"/>
<circle cx="197.482" cy="151.403" r="0.940389" transform="rotate(90 197.482 151.403)" fill="#1E1037"/>
<circle cx="209.707" cy="151.403" r="0.940389" transform="rotate(90 209.707 151.403)" fill="#1E1037"/>
<circle cx="221.932" cy="151.403" r="0.940389" transform="rotate(90 221.932 151.403)" fill="#1E1037"/>
<circle cx="234.157" cy="151.403" r="0.940389" transform="rotate(90 234.157 151.403)" fill="#1E1037"/>
<circle cx="246.382" cy="151.403" r="0.940389" transform="rotate(90 246.382 151.403)" fill="#1E1037"/>
<circle cx="258.607" cy="151.403" r="0.940389" transform="rotate(90 258.607 151.403)" fill="#1E1037"/>
<circle cx="270.832" cy="151.403" r="0.940389" transform="rotate(90 270.832 151.403)" fill="#1E1037"/>
<circle cx="283.057" cy="151.403" r="0.940389" transform="rotate(90 283.057 151.403)" fill="#1E1037"/>
<circle cx="295.282" cy="151.403" r="0.940389" transform="rotate(90 295.282 151.403)" fill="#1E1037"/>
<circle cx="307.507" cy="151.403" r="0.940389" transform="rotate(90 307.507 151.403)" fill="#1E1037"/>
<circle cx="319.732" cy="151.403" r="0.940389" transform="rotate(90 319.732 151.403)" fill="#1E1037"/>
<circle cx="155.164" cy="157.045" r="0.940389" transform="rotate(90 155.164 157.045)" fill="#1E1037"/>
<circle cx="167.389" cy="157.045" r="0.940389" transform="rotate(90 167.389 157.045)" fill="#1E1037"/>
<circle cx="179.614" cy="157.045" r="0.940389" transform="rotate(90 179.614 157.045)" fill="#1E1037"/>
<circle cx="191.839" cy="157.045" r="0.940389" transform="rotate(90 191.839 157.045)" fill="#1E1037"/>
<circle cx="204.064" cy="157.045" r="0.940389" transform="rotate(90 204.064 157.045)" fill="#1E1037"/>
<circle cx="216.29" cy="157.045" r="0.940389" transform="rotate(90 216.29 157.045)" fill="#1E1037"/>
<circle cx="228.515" cy="157.045" r="0.940389" transform="rotate(90 228.515 157.045)" fill="#1E1037"/>
<circle cx="240.74" cy="157.045" r="0.940389" transform="rotate(90 240.74 157.045)" fill="#1E1037"/>
<circle cx="252.965" cy="157.045" r="0.940389" transform="rotate(90 252.965 157.045)" fill="#1E1037"/>
<circle cx="265.19" cy="157.045" r="0.940389" transform="rotate(90 265.19 157.045)" fill="#1E1037"/>
<circle cx="277.415" cy="157.045" r="0.940389" transform="rotate(90 277.415 157.045)" fill="#1E1037"/>
<circle cx="289.64" cy="157.045" r="0.940389" transform="rotate(90 289.64 157.045)" fill="#1E1037"/>
<circle cx="301.865" cy="157.045" r="0.940389" transform="rotate(90 301.865 157.045)" fill="#1E1037"/>
<circle cx="314.09" cy="157.045" r="0.940389" transform="rotate(90 314.09 157.045)" fill="#1E1037"/>
<circle cx="326.315" cy="157.045" r="0.940389" transform="rotate(90 326.315 157.045)" fill="#1E1037"/>
<circle cx="160.807" cy="162.687" r="0.940389" transform="rotate(90 160.807 162.687)" fill="#1E1037"/>
<circle cx="173.032" cy="162.687" r="0.940389" transform="rotate(90 173.032 162.687)" fill="#1E1037"/>
<circle cx="185.257" cy="162.687" r="0.940389" transform="rotate(90 185.257 162.687)" fill="#1E1037"/>
<circle cx="197.482" cy="162.687" r="0.940389" transform="rotate(90 197.482 162.687)" fill="#1E1037"/>
<circle cx="209.707" cy="162.687" r="0.940389" transform="rotate(90 209.707 162.687)" fill="#1E1037"/>
<circle cx="221.932" cy="162.687" r="0.940389" transform="rotate(90 221.932 162.687)" fill="#1E1037"/>
<circle cx="234.157" cy="162.687" r="0.940389" transform="rotate(90 234.157 162.687)" fill="#1E1037"/>
<circle cx="246.382" cy="162.687" r="0.940389" transform="rotate(90 246.382 162.687)" fill="#1E1037"/>
<circle cx="258.607" cy="162.687" r="0.940389" transform="rotate(90 258.607 162.687)" fill="#1E1037"/>
<circle cx="270.832" cy="162.687" r="0.940389" transform="rotate(90 270.832 162.687)" fill="#1E1037"/>
<circle cx="283.057" cy="162.687" r="0.940389" transform="rotate(90 283.057 162.687)" fill="#1E1037"/>
<circle cx="295.282" cy="162.687" r="0.940389" transform="rotate(90 295.282 162.687)" fill="#1E1037"/>
<circle cx="307.507" cy="162.687" r="0.940389" transform="rotate(90 307.507 162.687)" fill="#1E1037"/>
<circle cx="319.732" cy="162.687" r="0.940389" transform="rotate(90 319.732 162.687)" fill="#1E1037"/>
<circle cx="155.164" cy="169.27" r="0.940389" transform="rotate(90 155.164 169.27)" fill="#1E1037"/>
<circle cx="167.389" cy="169.27" r="0.940389" transform="rotate(90 167.389 169.27)" fill="#1E1037"/>
<circle cx="160.807" cy="175.853" r="0.940389" transform="rotate(90 160.807 175.853)" fill="#1E1037"/>
<circle cx="179.614" cy="169.27" r="0.940389" transform="rotate(90 179.614 169.27)" fill="#1E1037"/>
<circle cx="191.839" cy="169.27" r="0.940389" transform="rotate(90 191.839 169.27)" fill="#1E1037"/>
<circle cx="204.064" cy="169.27" r="0.940389" transform="rotate(90 204.064 169.27)" fill="#1E1037"/>
<circle cx="216.29" cy="169.27" r="0.940389" transform="rotate(90 216.29 169.27)" fill="#1E1037"/>
<circle cx="228.515" cy="169.27" r="0.940389" transform="rotate(90 228.515 169.27)" fill="#1E1037"/>
<circle cx="240.74" cy="169.27" r="0.940389" transform="rotate(90 240.74 169.27)" fill="#1E1037"/>
<circle cx="252.965" cy="169.27" r="0.940389" transform="rotate(90 252.965 169.27)" fill="#1E1037"/>
<circle cx="265.19" cy="169.27" r="0.940389" transform="rotate(90 265.19 169.27)" fill="#1E1037"/>
<circle cx="277.415" cy="169.27" r="0.940389" transform="rotate(90 277.415 169.27)" fill="#1E1037"/>
<circle cx="289.64" cy="169.27" r="0.940389" transform="rotate(90 289.64 169.27)" fill="#1E1037"/>
<circle cx="301.865" cy="169.27" r="0.940389" transform="rotate(90 301.865 169.27)" fill="#1E1037"/>
<circle cx="314.09" cy="169.27" r="0.940389" transform="rotate(90 314.09 169.27)" fill="#1E1037"/>
<circle cx="326.315" cy="169.27" r="0.940389" transform="rotate(90 326.315 169.27)" fill="#1E1037"/>
<circle cx="173.972" cy="175.853" r="0.940389" transform="rotate(90 173.972 175.853)" fill="#1E1037"/>
<circle cx="186.197" cy="175.853" r="0.940389" transform="rotate(90 186.197 175.853)" fill="#1E1037"/>
<circle cx="198.422" cy="175.853" r="0.940389" transform="rotate(90 198.422 175.853)" fill="#1E1037"/>
<circle cx="210.647" cy="175.853" r="0.940389" transform="rotate(90 210.647 175.853)" fill="#1E1037"/>
<circle cx="222.872" cy="175.853" r="0.940389" transform="rotate(90 222.872 175.853)" fill="#1E1037"/>
<circle cx="235.097" cy="175.853" r="0.940389" transform="rotate(90 235.097 175.853)" fill="#1E1037"/>
<circle cx="247.322" cy="175.853" r="0.940389" transform="rotate(90 247.322 175.853)" fill="#1E1037"/>
<circle cx="259.547" cy="175.853" r="0.940389" transform="rotate(90 259.547 175.853)" fill="#1E1037"/>
<circle cx="271.772" cy="175.853" r="0.940389" transform="rotate(90 271.772 175.853)" fill="#1E1037"/>
<circle cx="283.998" cy="175.853" r="0.940389" transform="rotate(90 283.998 175.853)" fill="#1E1037"/>
<circle cx="296.223" cy="175.853" r="0.940389" transform="rotate(90 296.223 175.853)" fill="#1E1037"/>
<circle cx="308.448" cy="175.853" r="0.940389" transform="rotate(90 308.448 175.853)" fill="#1E1037"/>
<circle cx="320.673" cy="175.853" r="0.940389" transform="rotate(90 320.673 175.853)" fill="#1E1037"/>
<circle cx="179.614" cy="181.495" r="0.940389" transform="rotate(90 179.614 181.495)" fill="#1E1037"/>
<circle cx="155.164" cy="181.495" r="0.940389" transform="rotate(90 155.164 181.495)" fill="#1E1037"/>
<circle cx="167.389" cy="181.495" r="0.940389" transform="rotate(90 167.389 181.495)" fill="#1E1037"/>
<circle cx="160.807" cy="188.078" r="0.940389" transform="rotate(90 160.807 188.078)" fill="#1E1037"/>
<circle cx="191.839" cy="181.495" r="0.940389" transform="rotate(90 191.839 181.495)" fill="#1E1037"/>
<circle cx="204.064" cy="181.495" r="0.940389" transform="rotate(90 204.064 181.495)" fill="#1E1037"/>
<circle cx="216.29" cy="181.495" r="0.940389" transform="rotate(90 216.29 181.495)" fill="#1E1037"/>
<circle cx="228.515" cy="181.495" r="0.940389" transform="rotate(90 228.515 181.495)" fill="#1E1037"/>
<circle cx="240.74" cy="181.495" r="0.940389" transform="rotate(90 240.74 181.495)" fill="#1E1037"/>
<circle cx="252.965" cy="181.495" r="0.940389" transform="rotate(90 252.965 181.495)" fill="#1E1037"/>
<circle cx="265.19" cy="181.495" r="0.940389" transform="rotate(90 265.19 181.495)" fill="#1E1037"/>
<circle cx="277.415" cy="181.495" r="0.940389" transform="rotate(90 277.415 181.495)" fill="#1E1037"/>
<circle cx="289.64" cy="181.495" r="0.940389" transform="rotate(90 289.64 181.495)" fill="#1E1037"/>
<circle cx="301.865" cy="181.495" r="0.940389" transform="rotate(90 301.865 181.495)" fill="#1E1037"/>
<circle cx="314.09" cy="181.495" r="0.940389" transform="rotate(90 314.09 181.495)" fill="#1E1037"/>
<circle cx="326.315" cy="181.495" r="0.940389" transform="rotate(90 326.315 181.495)" fill="#1E1037"/>
<circle cx="198.422" cy="188.078" r="0.940389" transform="rotate(90 198.422 188.078)" fill="#1E1037"/>
<circle cx="210.647" cy="188.078" r="0.940389" transform="rotate(90 210.647 188.078)" fill="#1E1037"/>
<circle cx="222.872" cy="188.078" r="0.940389" transform="rotate(90 222.872 188.078)" fill="#1E1037"/>
<circle cx="235.097" cy="188.078" r="0.940389" transform="rotate(90 235.097 188.078)" fill="#1E1037"/>
<circle cx="247.322" cy="188.078" r="0.940389" transform="rotate(90 247.322 188.078)" fill="#1E1037"/>
<circle cx="259.547" cy="188.078" r="0.940389" transform="rotate(90 259.547 188.078)" fill="#1E1037"/>
<circle cx="271.772" cy="188.078" r="0.940389" transform="rotate(90 271.772 188.078)" fill="#1E1037"/>
<circle cx="283.998" cy="188.078" r="0.940389" transform="rotate(90 283.998 188.078)" fill="#1E1037"/>
<circle cx="296.223" cy="188.078" r="0.940389" transform="rotate(90 296.223 188.078)" fill="#1E1037"/>
<circle cx="308.448" cy="188.078" r="0.940389" transform="rotate(90 308.448 188.078)" fill="#1E1037"/>
<circle cx="320.673" cy="188.078" r="0.940389" transform="rotate(90 320.673 188.078)" fill="#1E1037"/>
<circle cx="217.23" cy="194.661" r="0.940389" transform="rotate(90 217.23 194.661)" fill="#1E1037"/>
<circle cx="229.455" cy="194.661" r="0.940389" transform="rotate(90 229.455 194.661)" fill="#1E1037"/>
<circle cx="241.68" cy="194.661" r="0.940389" transform="rotate(90 241.68 194.661)" fill="#1E1037"/>
<circle cx="253.905" cy="194.661" r="0.940389" transform="rotate(90 253.905 194.661)" fill="#1E1037"/>
<circle cx="266.13" cy="194.661" r="0.940389" transform="rotate(90 266.13 194.661)" fill="#1E1037"/>
<circle cx="278.355" cy="194.661" r="0.940389" transform="rotate(90 278.355 194.661)" fill="#1E1037"/>
<circle cx="290.58" cy="194.661" r="0.940389" transform="rotate(90 290.58 194.661)" fill="#1E1037"/>
<circle cx="302.805" cy="194.661" r="0.940389" transform="rotate(90 302.805 194.661)" fill="#1E1037"/>
<circle cx="315.03" cy="194.661" r="0.940389" transform="rotate(90 315.03 194.661)" fill="#1E1037"/>
<circle cx="327.255" cy="194.661" r="0.940389" transform="rotate(90 327.255 194.661)" fill="#1E1037"/>
<path d="M158.926 121.78C158.926 111.133 167.557 102.502 178.204 102.502H264.249C275.675 102.502 284.938 111.765 284.938 123.191V123.191V133.065V133.065C284.938 149.944 271.255 163.628 254.375 163.628H189.488C172.609 163.628 158.926 149.944 158.926 133.065V133.065V121.78V121.78Z" fill="#1F1332"/>
<rect x="159.426" y="91.7178" width="125.012" height="60.1253" rx="30.0627" fill="#FDFDFD" stroke="#1F1332"/>
<rect width="70.5292" height="40.4367" rx="8" transform="matrix(1.19249e-08 -1 -1 -1.19249e-08 611.253 599.028)" fill="#1F1332"/>
<rect x="-0.5" y="-0.5" width="99.6217" height="39.4367" rx="7.5" transform="matrix(1.19249e-08 -1 -1 -1.19249e-08 565.114 441.923)" fill="#D5FDCE" stroke="#1F1332"/>
<rect x="549.188" y="400.606" width="24.4501" height="6.58272" rx="3.29136" transform="rotate(90 549.188 400.606)" fill="#1F1038"/>
<rect x="-0.5" y="-0.5" width="67.6484" height="39.4367" rx="7.5" transform="matrix(1.19249e-08 -1 -1 -1.19249e-08 645.047 441.923)" fill="#CDC0FE" stroke="#1F1332"/>
<rect x="629.121" y="400.606" width="24.4501" height="6.58272" rx="3.29136" transform="rotate(90 629.121 400.606)" fill="#1F1038"/>
<rect x="-0.5" y="-0.5" width="69.5292" height="39.4367" rx="7.5" transform="matrix(1.19249e-08 -1 -1 -1.19249e-08 610.253 592.386)" fill="#D5FDCE" stroke="#1F1332"/>
<rect x="594.326" y="538.843" width="24.4501" height="6.58272" rx="3.29136" transform="rotate(90 594.326 538.843)" fill="#1F1038"/>
<rect x="-0.5" y="-0.5" width="79.8735" height="39.4367" rx="7.5" transform="matrix(1.19249e-08 -1 -1 -1.19249e-08 504.929 441.923)" fill="#CDC0FE" stroke="#1F1332"/>
<rect x="489.002" y="378.036" width="47.0195" height="6.58272" rx="3.29136" transform="rotate(90 489.002 378.036)" fill="#1F1038"/>
<rect x="168.83" y="101.122" width="65.7676" height="41.3175" rx="20.6588" fill="#CDC0FE" stroke="#1F1038"/>
<rect x="256.727" y="113.787" width="15.0462" height="2.82117" rx="1.41058" transform="rotate(90 256.727 113.787)" fill="#1F1038"/>
<rect x="198.422" y="106.264" width="30.0925" height="30.0925" rx="15.0462" fill="#1F1038"/>
<path d="M220.992 163.628C220.992 179.166 220.992 205.917 220.992 212.852C220.992 222.791 208.339 235.097 198.966 235.097C189.594 235.097 80.8735 235.097 80.8735 235.097" stroke="#1E1037" stroke-width="2.6"/>
<path d="M211.588 161.747C211.588 177.286 211.588 217.201 211.588 224.136C211.588 234.076 199.784 246.382 191.041 246.382C182.297 246.382 80.8735 246.382 80.8735 246.382" stroke="#1E1037" stroke-opacity="0.1" stroke-width="2.6"/>
<path d="M345.123 254.846C331.829 254.846 260.488 254.846 249.674 254.846C238.859 254.845 226.634 267.071 226.634 277.885C226.634 288.7 226.634 375.686 226.634 375.686" stroke="#1E1037" stroke-width="2.6"/>
<path d="M304.216 266.13C290.921 266.13 251.084 266.13 240.269 266.13C229.455 266.13 217.23 277.261 217.23 287.108C217.23 296.954 217.23 376.156 217.23 376.156" stroke="#1E1037" stroke-opacity="0.1" stroke-width="2.6"/>
<path d="M226.634 375.686L226.634 410.95" stroke="#CEC1FF" stroke-width="2.6"/>
<path d="M226.634 410.95L226.634 634.763" stroke="#1E1037" stroke-width="2.6"/>
<path d="M88.3965 657.332H91.2177" stroke="#1E1037" stroke-width="2.6"/>
<path d="M416.592 700.59L416.592 703.411" stroke="#1E1037" stroke-width="2.6"/>
<path d="M416.592 711.875L416.592 714.696" stroke="#1E1037" stroke-width="2.6"/>
<path d="M416.592 723.159L416.592 725.981" stroke="#1E1037" stroke-width="2.6"/>
<path d="M416.592 734.444L416.592 737.265" stroke="#1E1037" stroke-width="2.6"/>
<path d="M416.592 745.729L416.592 748.55" stroke="#1E1037" stroke-width="2.6"/>
<path d="M416.592 757.013L416.592 759.835" stroke="#1E1037" stroke-width="2.6"/>
<path d="M406.248 700.59L406.248 703.411" stroke="#1E1037" stroke-opacity="0.1" stroke-width="2.6"/>
<path d="M406.248 711.875L406.248 714.696" stroke="#1E1037" stroke-opacity="0.1" stroke-width="2.6"/>
<path d="M406.248 723.159L406.248 725.981" stroke="#1E1037" stroke-opacity="0.1" stroke-width="2.6"/>
<path d="M406.248 734.444L406.248 737.265" stroke="#1E1037" stroke-opacity="0.1" stroke-width="2.6"/>
<path d="M406.248 745.729L406.248 748.55" stroke="#1E1037" stroke-opacity="0.1" stroke-width="2.6"/>
<path d="M406.248 757.013L406.248 759.835" stroke="#1E1037" stroke-opacity="0.1" stroke-width="2.6"/>
<path d="M416.592 767.358L416.592 770.179" stroke="#1E1037" stroke-width="2.6"/>
<path d="M416.592 778.642L416.592 781.464" stroke="#1E1037" stroke-width="2.6"/>
<path d="M416.592 801.212L416.592 804.033" stroke="#1E1037" stroke-width="2.6"/>
<path d="M416.592 789.927L416.592 792.748" stroke="#1E1037" stroke-width="2.6"/>
<path d="M406.248 767.358L406.248 770.179" stroke="#1E1037" stroke-opacity="0.1" stroke-width="2.6"/>
<path d="M406.248 778.642L406.248 781.464" stroke="#1E1037" stroke-opacity="0.1" stroke-width="2.6"/>
<path d="M406.248 801.212L406.248 804.033" stroke="#1E1037" stroke-opacity="0.1" stroke-width="2.6"/>
<path d="M406.248 789.927L406.248 792.748" stroke="#1E1037" stroke-opacity="0.1" stroke-width="2.6"/>
<rect x="-0.5" y="-0.5" width="80.8139" height="81.7543" rx="20.5" transform="matrix(1.19249e-08 -1 -1 -1.19249e-08 456.97 695.828)" fill="#FDFDFD" stroke="#1F1332"/>
<rect x="-1" y="-1" width="13.0462" height="13.0462" rx="6.52311" transform="matrix(1.19249e-08 -1 -1 -1.19249e-08 422.116 660.975)" fill="#CABEFB" stroke="#1F1332" stroke-width="2"/>
<rect x="-1" y="-1" width="30.9136" height="29.9732" rx="7" transform="matrix(1.19249e-08 -1 -1 -1.19249e-08 430.579 669.438)" stroke="#1F1332" stroke-width="2"/>
<path d="M401.546 661.094H394.964" stroke="#1E1037" stroke-width="2.6"/>
<path d="M401.546 648.869H394.964" stroke="#1E1037" stroke-width="2.6"/>
<path d="M438.221 648.869H431.638" stroke="#1E1037" stroke-width="2.6"/>
<path d="M438.221 661.094H431.638" stroke="#1E1037" stroke-width="2.6"/>
<path d="M415.652 615.015C415.652 615.015 415.652 518.154 415.652 505.929C415.652 493.704 428.818 483.83 438.222 483.36L476.307 483.36M742.438 483.36L579.75 483.36M476.307 483.36C480.539 481.009 485.241 479.599 485.711 473.956C486.181 468.314 485.711 442.453 485.711 442.453M476.307 483.36L579.75 483.36M536.492 483.36C540.724 481.009 545.426 479.599 545.896 473.956C546.366 468.314 545.896 442.453 545.896 442.453M616.896 483.36C621.127 481.009 625.829 479.599 626.299 473.956C626.77 468.314 626.299 442.453 626.299 442.453M579.75 483.36C586.933 485.568 590.189 487.417 591.035 494.645L591.035 522.856" stroke="#1E1037" stroke-width="2.6"/>
<path d="M442.923 254.846C429.565 254.846 406.568 254.846 400.606 254.846" stroke="#1E1037" stroke-width="2.6"/>
<path d="M756.073 254.846C684.235 254.846 589.713 254.846 557.651 254.846" stroke="#1E1037" stroke-width="2.6"/>
<path d="M578.339 88.8668C570.766 110.181 567.991 122.959 565.644 147.171" stroke="#1E1037" stroke-width="2.6"/>
<path d="M623.008 91.2178C597.147 125.542 608.432 190.429 623.008 202.654" stroke="#1E1037" stroke-width="2.6"/>
<path d="M557.651 254.846C521.732 254.846 459.895 254.846 443.864 254.846" stroke="#D5FDCE" stroke-width="2.6"/>
<path d="M375.215 657.332H248.263" stroke="#1E1037" stroke-width="2.6"/>
<path d="M220.992 151.403V163.628" stroke="#FCFCFC" stroke-width="2.6"/>
<path d="M115.198 585.863V727.861" stroke="#D4FCCD"/>
</g>
<defs>
<linearGradient id="paint0_linear_120_532" x1="114.728" y1="0" x2="464.609" y2="742.057" gradientUnits="userSpaceOnUse">
<stop offset="0.279737" stop-color="#CCBFFD"/>
<stop offset="1" stop-color="#D9D9D9" stop-opacity="0"/>
</linearGradient>
<linearGradient id="paint1_linear_120_532" x1="90.7476" y1="138.237" x2="472.546" y2="486.651" gradientUnits="userSpaceOnUse">
<stop stop-color="#CCBFFD"/>
<stop offset="1" stop-color="#D3CFE6"/>
</linearGradient>
<clipPath id="clip0_120_532">
<rect width="756" height="804" fill="white"/>
</clipPath>
</defs>
</svg>
