<svg width="340" height="200" viewBox="0 0 340 200" fill="none" xmlns="http://www.w3.org/2000/svg">
<path d="M308 0H17V23.875V90.25V184H308V58V0Z" fill="url(#paint0_linear_139_115)"/>
<path d="M1 87.8183C1 64.0701 20.2518 44.8183 44 44.8183H121.714V122.532C121.714 146.28 102.462 165.532 78.7138 165.532H1V87.8183Z" fill="url(#paint1_linear_139_115)" stroke="#1E1037" stroke-width="2"/>
<path d="M325.86 36.7363C321.436 32.3128 315.831 29.2589 309.716 27.9407C303.601 26.6224 297.235 27.0957 291.382 29.3039C285.529 31.5121 280.437 35.3615 276.716 40.3905C272.995 45.4196 270.804 51.415 270.405 57.658C270.005 63.901 271.415 70.1267 274.465 75.5888C277.514 81.051 282.074 85.5177 287.598 88.4536C293.122 91.3896 300.781 92.5556 307.014 92.0273C307.014 79.2262 306.215 89.1618 311.166 85.338L302.862 59.7341L325.86 36.7363Z" fill="#1E1037" fill-opacity="0.1"/>
<rect x="-0.5" y="-0.5" width="39.1357" height="39.597" rx="19.5679" transform="matrix(1.19249e-08 -1 -1 -1.19249e-08 113.842 159.124)" fill="#FDFDFD" stroke="#1F1332"/>
<path d="M89.4975 141.159C89.9588 139.775 96.1868 133.316 96.4174 134.239C96.648 135.161 94.8028 140.928 95.2641 141.159C95.7254 141.389 99.1854 142.543 99.1854 143.927C99.1854 145.311 92.4961 151.308 91.8041 151.077C91.1122 150.847 93.1881 146.233 93.6494 145.311C94.1107 144.388 89.0361 142.543 89.4975 141.159Z" fill="#1F1037" fill-opacity="0.1"/>
<path d="M89.4975 136.225C89.9588 134.841 96.1868 128.382 96.4174 129.305C96.648 130.228 94.8028 135.994 95.2641 136.225C95.7254 136.456 99.1854 137.609 99.1854 138.993C99.1854 140.377 92.4961 146.374 91.8041 146.143C91.1122 145.913 93.1881 141.299 93.6494 140.377C94.1107 139.454 89.0361 137.609 89.4975 136.225Z" fill="#1F1037"/>
<ellipse cx="199.527" cy="107.251" rx="34.8304" ry="34.8304" fill="#1E1037"/>
<path d="M178.035 107.251C178.035 126.211 162.665 141.582 143.704 141.582C124.744 141.582 109.374 126.211 109.374 107.251C109.374 88.2909 124.744 72.9207 143.704 72.9207C162.665 72.9207 178.035 88.2909 178.035 107.251Z" fill="#D4FCCD" stroke="#1E1037"/>
<path d="M157.276 107.251C157.276 114.746 151.2 120.822 143.705 120.822C136.211 120.822 130.135 114.746 130.135 107.251C130.135 99.7563 136.211 93.6806 143.705 93.6806C151.2 93.6806 157.276 99.7563 157.276 107.251Z" fill="#FBFBFB" stroke="#1E1037"/>
<rect x="144.397" y="102.868" width="8.76528" height="1.38399" rx="0.691995" transform="rotate(90 144.397 102.868)" fill="#1F1038"/>
<rect width="8.76527" height="1.38399" rx="0.691995" transform="matrix(-1 -8.74228e-08 -8.74227e-08 1 148.088 106.559)" fill="#1F1038"/>
<rect x="269.878" y="178.527" width="12.4559" height="3.69064" rx="1.84532" transform="rotate(90 269.878 178.527)" fill="#1F1038"/>
<rect x="201.14" y="167.455" width="23.5279" height="3.69064" rx="1.84532" transform="rotate(90 201.14 167.455)" fill="#1F1038"/>
<rect x="230.665" y="178.527" width="12.4559" height="3.69064" rx="1.84532" transform="rotate(90 230.665 178.527)" fill="#1F1038"/>
<path d="M198.833 66.8848L198.833 68.2687" stroke="#1E1037" stroke-width="2.6"/>
<path d="M198.833 61.3488L198.833 62.7328" stroke="#1E1037" stroke-width="2.6"/>
<path d="M198.833 55.8129L198.833 57.1969" stroke="#1E1037" stroke-width="2.6"/>
<path d="M198.833 50.2769L198.833 51.6609" stroke="#1E1037" stroke-width="2.6"/>
<path d="M198.833 44.7409L198.833 46.1249" stroke="#1E1037" stroke-width="2.6"/>
<path d="M198.833 39.205L198.833 40.589" stroke="#1E1037" stroke-width="2.6"/>
<path d="M198.833 33.669L198.833 35.053" stroke="#1E1037" stroke-width="2.6"/>
<path d="M198.833 28.1331L198.833 29.5171" stroke="#1E1037" stroke-width="2.6"/>
<path d="M198.833 22.5971L198.833 23.9811" stroke="#1E1037" stroke-width="2.6"/>
<path d="M198.833 17.0611L198.833 18.4451" stroke="#1E1037" stroke-width="2.6"/>
<path d="M198.833 11.5252L198.833 12.9092" stroke="#1E1037" stroke-width="2.6"/>
<path d="M198.833 5.98924L198.833 7.37323" stroke="#1E1037" stroke-width="2.6"/>
<path d="M198.833 0.453194L198.833 1.83719" stroke="#1E1037" stroke-width="2.6"/>
<path d="M17.9917 166.071H61.3567H77.6015H104.722C104.722 175.753 96.873 183.601 87.1912 183.601H17.9917V166.071Z" fill="#1E1037"/>
<path d="M104.722 166.071V157C95.3359 162.829 87.7659 165.347 77.6015 166.071H104.722Z" fill="#1E1037"/>
<mask id="path-29-inside-1_139_115" fill="white">
<path d="M330.474 31.2004C325.926 26.6518 320.13 23.5542 313.821 22.2993C307.512 21.0444 300.973 21.6885 295.03 24.1501C289.087 26.6118 284.008 30.7804 280.434 36.1289C276.86 41.4774 274.953 47.7656 274.953 54.1982C274.953 60.6308 276.86 66.9189 280.434 72.2674C284.008 77.6159 289.087 81.7846 295.03 84.2462C300.973 86.7079 307.512 87.352 313.821 86.097C320.13 84.8421 325.926 81.7445 330.474 77.196L307.476 54.1982L330.474 31.2004Z"/>
</mask>
<path d="M330.474 31.2004C325.926 26.6518 320.13 23.5542 313.821 22.2993C307.512 21.0444 300.973 21.6885 295.03 24.1501C289.087 26.6118 284.008 30.7804 280.434 36.1289C276.86 41.4774 274.953 47.7656 274.953 54.1982C274.953 60.6308 276.86 66.9189 280.434 72.2674C284.008 77.6159 289.087 81.7846 295.03 84.2462C300.973 86.7079 307.512 87.352 313.821 86.097C320.13 84.8421 325.926 81.7445 330.474 77.196L307.476 54.1982L330.474 31.2004Z" fill="#FDFDFD" stroke="#1E1037" stroke-width="2" mask="url(#path-29-inside-1_139_115)"/>
<path d="M303.702 40.9478C306.133 43.4179 311.132 52.5026 308.662 54.9336C306.191 57.3646 297.188 52.2214 294.757 49.7513C292.326 47.2812 292.357 43.308 294.828 40.877C297.298 38.446 301.271 38.4777 303.702 40.9478Z" fill="#1E1037"/>
<path d="M322.08 41.7283C324.511 44.1985 324.479 48.1716 322.009 50.6027C319.539 53.0337 311.094 57.4037 308.662 54.9336C306.231 52.4635 310.736 44.0886 313.206 41.6575C315.676 39.2265 319.649 39.2582 322.08 41.7283Z" fill="#1E1037"/>
<path d="M321.937 59.477C324.368 61.9471 324.336 65.9203 321.866 68.3513C319.396 70.7823 315.423 70.7506 312.992 68.2805C310.561 65.8104 306.191 57.3646 308.661 54.9336C311.131 52.5026 319.506 57.0069 321.937 59.477Z" fill="#1E1037"/>
<path d="M308.662 54.9336C311.093 57.4037 306.589 65.7786 304.119 68.2097C301.649 70.6407 297.676 70.609 295.245 68.1389C292.814 65.6687 292.845 61.6956 295.315 59.2646C297.785 56.8335 306.231 52.4635 308.662 54.9336Z" fill="#1E1037"/>
<ellipse cx="3.2294" cy="164.225" rx="0.46133" ry="0.46133" fill="#1E1037"/>
<ellipse cx="3.2294" cy="158.228" rx="0.46133" ry="0.46133" fill="#1E1037"/>
<ellipse cx="3.2294" cy="152.231" rx="0.46133" ry="0.46133" fill="#1E1037"/>
<ellipse cx="3.2294" cy="146.233" rx="0.46133" ry="0.46133" fill="#1E1037"/>
<ellipse cx="3.2294" cy="140.236" rx="0.46133" ry="0.46133" fill="#1E1037"/>
<ellipse cx="3.2294" cy="134.239" rx="0.46133" ry="0.46133" fill="#1E1037"/>
<ellipse cx="3.2294" cy="128.242" rx="0.46133" ry="0.46133" fill="#1E1037"/>
<ellipse cx="3.2294" cy="122.244" rx="0.46133" ry="0.46133" fill="#1E1037"/>
<ellipse cx="3.2294" cy="116.247" rx="0.46133" ry="0.46133" fill="#1E1037"/>
<ellipse cx="3.2294" cy="110.25" rx="0.46133" ry="0.46133" fill="#1E1037"/>
<ellipse cx="3.2294" cy="104.252" rx="0.46133" ry="0.46133" fill="#1E1037"/>
<ellipse cx="3.2294" cy="98.2552" rx="0.46133" ry="0.46133" fill="#1E1037"/>
<ellipse cx="3.2294" cy="92.2579" rx="0.46133" ry="0.46133" fill="#1E1037"/>
<ellipse cx="3.2294" cy="86.2606" rx="0.46133" ry="0.46133" fill="#1E1037"/>
<ellipse cx="3.2294" cy="80.2633" rx="0.46133" ry="0.46133" fill="#1E1037"/>
<ellipse cx="3.2294" cy="74.2661" rx="0.46133" ry="0.46133" fill="#1E1037"/>
<ellipse cx="3.2294" cy="68.2688" rx="0.46133" ry="0.46133" fill="#1E1037"/>
<ellipse cx="3.2294" cy="62.2715" rx="0.46133" ry="0.46133" fill="#1E1037"/>
<ellipse cx="3.2294" cy="56.2742" rx="0.46133" ry="0.46133" fill="#1E1037"/>
<ellipse cx="5.99746" cy="161.457" rx="0.46133" ry="0.46133" fill="#1E1037"/>
<ellipse cx="5.99746" cy="155.46" rx="0.46133" ry="0.46133" fill="#1E1037"/>
<ellipse cx="5.99746" cy="149.463" rx="0.46133" ry="0.46133" fill="#1E1037"/>
<ellipse cx="5.99746" cy="143.465" rx="0.46133" ry="0.46133" fill="#1E1037"/>
<ellipse cx="5.99746" cy="137.468" rx="0.46133" ry="0.46133" fill="#1E1037"/>
<ellipse cx="5.99746" cy="131.471" rx="0.46133" ry="0.46133" fill="#1E1037"/>
<ellipse cx="5.99746" cy="125.474" rx="0.46133" ry="0.46133" fill="#1E1037"/>
<ellipse cx="5.99746" cy="119.476" rx="0.46133" ry="0.46133" fill="#1E1037"/>
<ellipse cx="5.99746" cy="113.479" rx="0.46133" ry="0.46133" fill="#1E1037"/>
<ellipse cx="5.99746" cy="107.482" rx="0.46133" ry="0.46133" fill="#1E1037"/>
<ellipse cx="5.99746" cy="101.484" rx="0.46133" ry="0.46133" fill="#1E1037"/>
<ellipse cx="5.99746" cy="95.4871" rx="0.46133" ry="0.46133" fill="#1E1037"/>
<ellipse cx="5.99746" cy="89.4898" rx="0.46133" ry="0.46133" fill="#1E1037"/>
<ellipse cx="5.99746" cy="83.4925" rx="0.46133" ry="0.46133" fill="#1E1037"/>
<ellipse cx="5.99746" cy="77.4953" rx="0.46133" ry="0.46133" fill="#1E1037"/>
<ellipse cx="5.99746" cy="71.498" rx="0.46133" ry="0.46133" fill="#1E1037"/>
<ellipse cx="5.99746" cy="65.5007" rx="0.46133" ry="0.46133" fill="#1E1037"/>
<ellipse cx="5.99746" cy="59.5034" rx="0.46133" ry="0.46133" fill="#1E1037"/>
<ellipse cx="5.99746" cy="53.5062" rx="0.46133" ry="0.46133" fill="#1E1037"/>
<ellipse cx="9.22744" cy="164.225" rx="0.46133" ry="0.46133" fill="#1E1037"/>
<ellipse cx="9.22744" cy="158.228" rx="0.46133" ry="0.46133" fill="#1E1037"/>
<ellipse cx="9.22744" cy="152.231" rx="0.46133" ry="0.46133" fill="#1E1037"/>
<ellipse cx="9.22744" cy="146.233" rx="0.46133" ry="0.46133" fill="#1E1037"/>
<ellipse cx="9.22744" cy="140.236" rx="0.46133" ry="0.46133" fill="#1E1037"/>
<ellipse cx="9.22744" cy="134.239" rx="0.46133" ry="0.46133" fill="#1E1037"/>
<ellipse cx="9.22744" cy="128.242" rx="0.46133" ry="0.46133" fill="#1E1037"/>
<ellipse cx="9.22744" cy="122.244" rx="0.46133" ry="0.46133" fill="#1E1037"/>
<ellipse cx="9.22744" cy="116.247" rx="0.46133" ry="0.46133" fill="#1E1037"/>
<ellipse cx="9.22744" cy="110.25" rx="0.46133" ry="0.46133" fill="#1E1037"/>
<ellipse cx="9.22744" cy="104.252" rx="0.46133" ry="0.46133" fill="#1E1037"/>
<ellipse cx="9.22744" cy="98.2552" rx="0.46133" ry="0.46133" fill="#1E1037"/>
<ellipse cx="9.22744" cy="92.2579" rx="0.46133" ry="0.46133" fill="#1E1037"/>
<ellipse cx="9.22744" cy="86.2606" rx="0.46133" ry="0.46133" fill="#1E1037"/>
<ellipse cx="9.22744" cy="80.2633" rx="0.46133" ry="0.46133" fill="#1E1037"/>
<ellipse cx="9.22744" cy="74.2661" rx="0.46133" ry="0.46133" fill="#1E1037"/>
<ellipse cx="9.22744" cy="68.2688" rx="0.46133" ry="0.46133" fill="#1E1037"/>
<ellipse cx="9.22744" cy="62.2715" rx="0.46133" ry="0.46133" fill="#1E1037"/>
<ellipse cx="9.22744" cy="56.2742" rx="0.46133" ry="0.46133" fill="#1E1037"/>
<ellipse cx="12.4569" cy="161.457" rx="0.46133" ry="0.46133" fill="#1E1037"/>
<ellipse cx="12.4569" cy="155.46" rx="0.46133" ry="0.46133" fill="#1E1037"/>
<ellipse cx="12.4569" cy="149.463" rx="0.46133" ry="0.46133" fill="#1E1037"/>
<ellipse cx="12.4569" cy="143.466" rx="0.46133" ry="0.46133" fill="#1E1037"/>
<ellipse cx="12.4569" cy="137.468" rx="0.46133" ry="0.46133" fill="#1E1037"/>
<ellipse cx="12.4569" cy="131.471" rx="0.46133" ry="0.46133" fill="#1E1037"/>
<ellipse cx="12.4569" cy="125.474" rx="0.46133" ry="0.46133" fill="#1E1037"/>
<ellipse cx="12.4569" cy="119.476" rx="0.46133" ry="0.46133" fill="#1E1037"/>
<ellipse cx="12.4569" cy="113.479" rx="0.46133" ry="0.46133" fill="#1E1037"/>
<ellipse cx="12.4569" cy="107.482" rx="0.46133" ry="0.46133" fill="#1E1037"/>
<ellipse cx="12.4569" cy="101.485" rx="0.46133" ry="0.46133" fill="#1E1037"/>
<ellipse cx="12.4569" cy="95.4873" rx="0.46133" ry="0.46133" fill="#1E1037"/>
<ellipse cx="12.4569" cy="89.4899" rx="0.46133" ry="0.46133" fill="#1E1037"/>
<ellipse cx="12.4569" cy="83.4927" rx="0.46133" ry="0.46133" fill="#1E1037"/>
<ellipse cx="12.4569" cy="77.4954" rx="0.46133" ry="0.46133" fill="#1E1037"/>
<ellipse cx="12.4569" cy="71.4982" rx="0.46133" ry="0.46133" fill="#1E1037"/>
<ellipse cx="12.4569" cy="65.5008" rx="0.46133" ry="0.46133" fill="#1E1037"/>
<ellipse cx="12.4569" cy="59.5036" rx="0.46133" ry="0.46133" fill="#1E1037"/>
<ellipse cx="12.4569" cy="53.5061" rx="0.46133" ry="0.46133" fill="#1E1037"/>
<ellipse cx="15.225" cy="164.225" rx="0.46133" ry="0.46133" fill="#1E1037"/>
<ellipse cx="15.225" cy="158.228" rx="0.46133" ry="0.46133" fill="#1E1037"/>
<ellipse cx="15.225" cy="152.231" rx="0.46133" ry="0.46133" fill="#1E1037"/>
<ellipse cx="15.225" cy="146.233" rx="0.46133" ry="0.46133" fill="#1E1037"/>
<ellipse cx="15.225" cy="140.236" rx="0.46133" ry="0.46133" fill="#1E1037"/>
<ellipse cx="15.225" cy="134.239" rx="0.46133" ry="0.46133" fill="#1E1037"/>
<ellipse cx="15.225" cy="128.242" rx="0.46133" ry="0.46133" fill="#1E1037"/>
<ellipse cx="15.225" cy="122.244" rx="0.46133" ry="0.46133" fill="#1E1037"/>
<ellipse cx="15.225" cy="116.247" rx="0.46133" ry="0.46133" fill="#1E1037"/>
<ellipse cx="15.225" cy="110.25" rx="0.46133" ry="0.46133" fill="#1E1037"/>
<ellipse cx="15.225" cy="104.252" rx="0.46133" ry="0.46133" fill="#1E1037"/>
<ellipse cx="15.225" cy="98.2552" rx="0.46133" ry="0.46133" fill="#1E1037"/>
<ellipse cx="15.225" cy="92.2579" rx="0.46133" ry="0.46133" fill="#1E1037"/>
<ellipse cx="15.225" cy="86.2606" rx="0.46133" ry="0.46133" fill="#1E1037"/>
<ellipse cx="15.225" cy="80.2633" rx="0.46133" ry="0.46133" fill="#1E1037"/>
<ellipse cx="15.225" cy="74.2661" rx="0.46133" ry="0.46133" fill="#1E1037"/>
<ellipse cx="15.225" cy="68.2688" rx="0.46133" ry="0.46133" fill="#1E1037"/>
<ellipse cx="15.225" cy="62.2715" rx="0.46133" ry="0.46133" fill="#1E1037"/>
<ellipse cx="15.225" cy="56.2742" rx="0.46133" ry="0.46133" fill="#1E1037"/>
<ellipse cx="17.9911" cy="161.457" rx="0.46133" ry="0.46133" fill="#1E1037"/>
<ellipse cx="17.9911" cy="155.46" rx="0.46133" ry="0.46133" fill="#1E1037"/>
<ellipse cx="17.9911" cy="149.463" rx="0.46133" ry="0.46133" fill="#1E1037"/>
<ellipse cx="17.9911" cy="143.465" rx="0.46133" ry="0.46133" fill="#1E1037"/>
<ellipse cx="17.9911" cy="137.468" rx="0.46133" ry="0.46133" fill="#1E1037"/>
<ellipse cx="17.9911" cy="131.471" rx="0.46133" ry="0.46133" fill="#1E1037"/>
<ellipse cx="17.9911" cy="125.474" rx="0.46133" ry="0.46133" fill="#1E1037"/>
<ellipse cx="17.9911" cy="119.476" rx="0.46133" ry="0.46133" fill="#1E1037"/>
<ellipse cx="17.9911" cy="113.479" rx="0.46133" ry="0.46133" fill="#1E1037"/>
<ellipse cx="17.9911" cy="107.482" rx="0.46133" ry="0.46133" fill="#1E1037"/>
<ellipse cx="17.9911" cy="101.484" rx="0.46133" ry="0.46133" fill="#1E1037"/>
<ellipse cx="17.9911" cy="95.4871" rx="0.46133" ry="0.46133" fill="#1E1037"/>
<ellipse cx="17.9911" cy="89.4898" rx="0.46133" ry="0.46133" fill="#1E1037"/>
<ellipse cx="17.9911" cy="83.4926" rx="0.46133" ry="0.46133" fill="#1E1037"/>
<ellipse cx="17.9911" cy="77.4952" rx="0.46133" ry="0.46133" fill="#1E1037"/>
<ellipse cx="17.9911" cy="71.498" rx="0.46133" ry="0.46133" fill="#1E1037"/>
<ellipse cx="17.9911" cy="65.5008" rx="0.46133" ry="0.46133" fill="#1E1037"/>
<ellipse cx="17.9911" cy="59.5035" rx="0.46133" ry="0.46133" fill="#1E1037"/>
<ellipse cx="17.9911" cy="53.5061" rx="0.46133" ry="0.46133" fill="#1E1037"/>
<ellipse cx="15.225" cy="50.7382" rx="0.46133" ry="0.46133" fill="#1E1037"/>
<ellipse cx="9.22744" cy="50.7382" rx="0.46133" ry="0.46133" fill="#1E1037"/>
<ellipse cx="12.4569" cy="47.0475" rx="0.46133" ry="0.46133" fill="#1E1037"/>
<ellipse cx="17.9911" cy="47.0475" rx="0.46133" ry="0.46133" fill="#1E1037"/>
<ellipse cx="21.2211" cy="50.2768" rx="0.46133" ry="0.46133" fill="#1E1037"/>
<ellipse cx="21.2206" cy="164.225" rx="0.46133" ry="0.46133" fill="#1E1037"/>
<ellipse cx="21.2206" cy="158.228" rx="0.46133" ry="0.46133" fill="#1E1037"/>
<ellipse cx="21.2206" cy="152.231" rx="0.46133" ry="0.46133" fill="#1E1037"/>
<ellipse cx="21.2206" cy="146.233" rx="0.46133" ry="0.46133" fill="#1E1037"/>
<ellipse cx="21.2206" cy="140.236" rx="0.46133" ry="0.46133" fill="#1E1037"/>
<ellipse cx="21.2206" cy="134.239" rx="0.46133" ry="0.46133" fill="#1E1037"/>
<ellipse cx="21.2206" cy="128.242" rx="0.46133" ry="0.46133" fill="#1E1037"/>
<ellipse cx="21.2206" cy="122.244" rx="0.46133" ry="0.46133" fill="#1E1037"/>
<ellipse cx="21.2206" cy="116.247" rx="0.46133" ry="0.46133" fill="#1E1037"/>
<ellipse cx="21.2206" cy="110.25" rx="0.46133" ry="0.46133" fill="#1E1037"/>
<ellipse cx="21.2206" cy="104.252" rx="0.46133" ry="0.46133" fill="#1E1037"/>
<ellipse cx="21.2206" cy="98.2552" rx="0.46133" ry="0.46133" fill="#1E1037"/>
<ellipse cx="21.2206" cy="92.2579" rx="0.46133" ry="0.46133" fill="#1E1037"/>
<ellipse cx="21.2206" cy="86.2606" rx="0.46133" ry="0.46133" fill="#1E1037"/>
<ellipse cx="21.2206" cy="80.2633" rx="0.46133" ry="0.46133" fill="#1E1037"/>
<ellipse cx="21.2206" cy="74.2661" rx="0.46133" ry="0.46133" fill="#1E1037"/>
<ellipse cx="21.2206" cy="68.2688" rx="0.46133" ry="0.46133" fill="#1E1037"/>
<ellipse cx="21.2206" cy="62.2715" rx="0.46133" ry="0.46133" fill="#1E1037"/>
<ellipse cx="21.2206" cy="56.2742" rx="0.46133" ry="0.46133" fill="#1E1037"/>
<ellipse cx="24.4511" cy="154.999" rx="0.46133" ry="0.46133" fill="#1E1037"/>
<ellipse cx="24.4511" cy="149.001" rx="0.46133" ry="0.46133" fill="#1E1037"/>
<ellipse cx="24.4511" cy="143.004" rx="0.46133" ry="0.46133" fill="#1E1037"/>
<ellipse cx="24.4511" cy="137.007" rx="0.46133" ry="0.46133" fill="#1E1037"/>
<ellipse cx="24.4511" cy="131.01" rx="0.46133" ry="0.46133" fill="#1E1037"/>
<ellipse cx="24.4511" cy="125.012" rx="0.46133" ry="0.46133" fill="#1E1037"/>
<ellipse cx="24.4511" cy="119.015" rx="0.46133" ry="0.46133" fill="#1E1037"/>
<ellipse cx="24.4511" cy="113.018" rx="0.46133" ry="0.46133" fill="#1E1037"/>
<ellipse cx="24.4511" cy="107.02" rx="0.46133" ry="0.46133" fill="#1E1037"/>
<ellipse cx="24.4511" cy="101.023" rx="0.46133" ry="0.46133" fill="#1E1037"/>
<ellipse cx="24.4511" cy="95.0258" rx="0.46133" ry="0.46133" fill="#1E1037"/>
<ellipse cx="24.4511" cy="89.0285" rx="0.46133" ry="0.46133" fill="#1E1037"/>
<ellipse cx="24.4511" cy="83.0312" rx="0.46133" ry="0.46133" fill="#1E1037"/>
<ellipse cx="24.4511" cy="77.0339" rx="0.46133" ry="0.46133" fill="#1E1037"/>
<ellipse cx="24.4511" cy="71.0367" rx="0.46133" ry="0.46133" fill="#1E1037"/>
<ellipse cx="24.4511" cy="65.0394" rx="0.46133" ry="0.46133" fill="#1E1037"/>
<ellipse cx="24.4511" cy="59.0421" rx="0.46133" ry="0.46133" fill="#1E1037"/>
<ellipse cx="24.4511" cy="53.0449" rx="0.46133" ry="0.46133" fill="#1E1037"/>
<ellipse cx="24.4511" cy="47.0476" rx="0.46133" ry="0.46133" fill="#1E1037"/>
<ellipse cx="27.2187" cy="152.231" rx="0.46133" ry="0.46133" fill="#1E1037"/>
<ellipse cx="27.2187" cy="146.233" rx="0.46133" ry="0.46133" fill="#1E1037"/>
<ellipse cx="27.2187" cy="140.236" rx="0.46133" ry="0.46133" fill="#1E1037"/>
<ellipse cx="27.2187" cy="134.239" rx="0.46133" ry="0.46133" fill="#1E1037"/>
<ellipse cx="27.2187" cy="128.242" rx="0.46133" ry="0.46133" fill="#1E1037"/>
<ellipse cx="27.2187" cy="122.244" rx="0.46133" ry="0.46133" fill="#1E1037"/>
<ellipse cx="27.2187" cy="116.247" rx="0.46133" ry="0.46133" fill="#1E1037"/>
<ellipse cx="27.2187" cy="110.25" rx="0.46133" ry="0.46133" fill="#1E1037"/>
<ellipse cx="27.2187" cy="104.252" rx="0.46133" ry="0.46133" fill="#1E1037"/>
<ellipse cx="27.2187" cy="98.2551" rx="0.46133" ry="0.46133" fill="#1E1037"/>
<ellipse cx="27.2187" cy="92.2579" rx="0.46133" ry="0.46133" fill="#1E1037"/>
<ellipse cx="27.2187" cy="86.2606" rx="0.46133" ry="0.46133" fill="#1E1037"/>
<ellipse cx="27.2187" cy="80.2633" rx="0.46133" ry="0.46133" fill="#1E1037"/>
<ellipse cx="27.2187" cy="74.2661" rx="0.46133" ry="0.46133" fill="#1E1037"/>
<ellipse cx="27.2187" cy="68.2688" rx="0.46133" ry="0.46133" fill="#1E1037"/>
<ellipse cx="27.2187" cy="62.2715" rx="0.46133" ry="0.46133" fill="#1E1037"/>
<ellipse cx="27.2187" cy="56.2742" rx="0.46133" ry="0.46133" fill="#1E1037"/>
<ellipse cx="27.2187" cy="50.2769" rx="0.46133" ry="0.46133" fill="#1E1037"/>
<ellipse cx="27.2187" cy="44.2795" rx="0.46133" ry="0.46133" fill="#1E1037"/>
<ellipse cx="30.4481" cy="143.004" rx="0.46133" ry="0.46133" fill="#1E1037"/>
<ellipse cx="30.4481" cy="137.007" rx="0.46133" ry="0.46133" fill="#1E1037"/>
<ellipse cx="30.4481" cy="131.01" rx="0.46133" ry="0.46133" fill="#1E1037"/>
<ellipse cx="30.4481" cy="125.012" rx="0.46133" ry="0.46133" fill="#1E1037"/>
<ellipse cx="30.4481" cy="119.015" rx="0.46133" ry="0.46133" fill="#1E1037"/>
<ellipse cx="30.4481" cy="113.018" rx="0.46133" ry="0.46133" fill="#1E1037"/>
<ellipse cx="30.4481" cy="107.02" rx="0.46133" ry="0.46133" fill="#1E1037"/>
<ellipse cx="30.4481" cy="101.023" rx="0.46133" ry="0.46133" fill="#1E1037"/>
<ellipse cx="30.4481" cy="95.0258" rx="0.46133" ry="0.46133" fill="#1E1037"/>
<ellipse cx="30.4481" cy="89.0285" rx="0.46133" ry="0.46133" fill="#1E1037"/>
<ellipse cx="30.4481" cy="83.0312" rx="0.46133" ry="0.46133" fill="#1E1037"/>
<ellipse cx="30.4481" cy="77.0339" rx="0.46133" ry="0.46133" fill="#1E1037"/>
<ellipse cx="30.4481" cy="71.0367" rx="0.46133" ry="0.46133" fill="#1E1037"/>
<ellipse cx="30.4481" cy="65.0394" rx="0.46133" ry="0.46133" fill="#1E1037"/>
<ellipse cx="30.4481" cy="59.0421" rx="0.46133" ry="0.46133" fill="#1E1037"/>
<ellipse cx="30.4481" cy="53.0448" rx="0.46133" ry="0.46133" fill="#1E1037"/>
<ellipse cx="30.4481" cy="47.0475" rx="0.46133" ry="0.46133" fill="#1E1037"/>
<ellipse cx="33.6767" cy="133.778" rx="0.46133" ry="0.46133" fill="#1E1037"/>
<ellipse cx="33.6767" cy="127.78" rx="0.46133" ry="0.46133" fill="#1E1037"/>
<ellipse cx="33.6767" cy="121.783" rx="0.46133" ry="0.46133" fill="#1E1037"/>
<ellipse cx="33.6767" cy="115.786" rx="0.46133" ry="0.46133" fill="#1E1037"/>
<ellipse cx="33.6767" cy="109.788" rx="0.46133" ry="0.46133" fill="#1E1037"/>
<ellipse cx="33.6767" cy="103.791" rx="0.46133" ry="0.46133" fill="#1E1037"/>
<ellipse cx="33.6767" cy="97.7938" rx="0.46133" ry="0.46133" fill="#1E1037"/>
<ellipse cx="33.6767" cy="91.7965" rx="0.46133" ry="0.46133" fill="#1E1037"/>
<ellipse cx="33.6767" cy="85.7993" rx="0.46133" ry="0.46133" fill="#1E1037"/>
<ellipse cx="33.6767" cy="79.802" rx="0.46133" ry="0.46133" fill="#1E1037"/>
<ellipse cx="33.6767" cy="74.2661" rx="0.46133" ry="0.46133" fill="#1E1037"/>
<ellipse cx="33.6767" cy="67.8075" rx="0.46133" ry="0.46133" fill="#1E1037"/>
<ellipse cx="33.6767" cy="61.8102" rx="0.46133" ry="0.46133" fill="#1E1037"/>
<ellipse cx="33.6767" cy="55.8129" rx="0.46133" ry="0.46133" fill="#1E1037"/>
<ellipse cx="33.6767" cy="49.8155" rx="0.46133" ry="0.46133" fill="#1E1037"/>
<ellipse cx="36.9054" cy="47.0475" rx="0.46133" ry="0.46133" transform="rotate(90 36.9054 47.0475)" fill="#1E1037"/>
<ellipse cx="42.9034" cy="47.0475" rx="0.46133" ry="0.46133" transform="rotate(90 42.9034 47.0475)" fill="#1E1037"/>
<ellipse cx="48.9005" cy="47.0475" rx="0.46133" ry="0.46133" transform="rotate(90 48.9005 47.0475)" fill="#1E1037"/>
<ellipse cx="54.8966" cy="47.0475" rx="0.46133" ry="0.46133" transform="rotate(90 54.8966 47.0475)" fill="#1E1037"/>
<ellipse cx="60.8946" cy="47.0475" rx="0.46133" ry="0.46133" transform="rotate(90 60.8946 47.0475)" fill="#1E1037"/>
<ellipse cx="66.8927" cy="47.0475" rx="0.46133" ry="0.46133" transform="rotate(90 66.8927 47.0475)" fill="#1E1037"/>
<ellipse cx="72.8902" cy="47.0475" rx="0.46133" ry="0.46133" transform="rotate(90 72.8902 47.0475)" fill="#1E1037"/>
<ellipse cx="78.8873" cy="47.0475" rx="0.46133" ry="0.46133" transform="rotate(90 78.8873 47.0475)" fill="#1E1037"/>
<ellipse cx="84.8849" cy="47.0475" rx="0.46133" ry="0.46133" transform="rotate(90 84.8849 47.0475)" fill="#1E1037"/>
<ellipse cx="90.8819" cy="47.0475" rx="0.46133" ry="0.46133" transform="rotate(90 90.8819 47.0475)" fill="#1E1037"/>
<ellipse cx="96.879" cy="47.0475" rx="0.46133" ry="0.46133" transform="rotate(90 96.879 47.0475)" fill="#1E1037"/>
<ellipse cx="102.876" cy="47.0475" rx="0.46133" ry="0.46133" transform="rotate(90 102.876 47.0475)" fill="#1E1037"/>
<ellipse cx="108.873" cy="47.0475" rx="0.46133" ry="0.46133" transform="rotate(90 108.873 47.0475)" fill="#1E1037"/>
<ellipse cx="114.87" cy="47.0475" rx="0.46133" ry="0.46133" transform="rotate(90 114.87 47.0475)" fill="#1E1037"/>
<ellipse cx="120.867" cy="47.0475" rx="0.46133" ry="0.46133" transform="rotate(90 120.867 47.0475)" fill="#1E1037"/>
<ellipse cx="39.6754" cy="49.8155" rx="0.46133" ry="0.46133" transform="rotate(90 39.6754 49.8155)" fill="#1E1037"/>
<ellipse cx="45.6715" cy="49.8155" rx="0.46133" ry="0.46133" transform="rotate(90 45.6715 49.8155)" fill="#1E1037"/>
<ellipse cx="51.669" cy="49.8155" rx="0.46133" ry="0.46133" transform="rotate(90 51.669 49.8155)" fill="#1E1037"/>
<ellipse cx="57.6666" cy="49.8155" rx="0.46133" ry="0.46133" transform="rotate(90 57.6666 49.8155)" fill="#1E1037"/>
<ellipse cx="63.6627" cy="49.8155" rx="0.46133" ry="0.46133" transform="rotate(90 63.6627 49.8155)" fill="#1E1037"/>
<ellipse cx="69.6607" cy="49.8155" rx="0.46133" ry="0.46133" transform="rotate(90 69.6607 49.8155)" fill="#1E1037"/>
<ellipse cx="75.6588" cy="49.8155" rx="0.46133" ry="0.46133" transform="rotate(90 75.6588 49.8155)" fill="#1E1037"/>
<ellipse cx="81.6563" cy="49.8155" rx="0.46133" ry="0.46133" transform="rotate(90 81.6563 49.8155)" fill="#1E1037"/>
<ellipse cx="87.6524" cy="49.8155" rx="0.46133" ry="0.46133" transform="rotate(90 87.6524 49.8155)" fill="#1E1037"/>
<ellipse cx="93.65" cy="49.8155" rx="0.46133" ry="0.46133" transform="rotate(90 93.65 49.8155)" fill="#1E1037"/>
<ellipse cx="99.6461" cy="49.8155" rx="0.46133" ry="0.46133" transform="rotate(90 99.6461 49.8155)" fill="#1E1037"/>
<ellipse cx="105.644" cy="49.8155" rx="0.46133" ry="0.46133" transform="rotate(90 105.644 49.8155)" fill="#1E1037"/>
<ellipse cx="111.643" cy="49.8155" rx="0.46133" ry="0.46133" transform="rotate(90 111.643 49.8155)" fill="#1E1037"/>
<ellipse cx="117.639" cy="49.8155" rx="0.46133" ry="0.46133" transform="rotate(90 117.639 49.8155)" fill="#1E1037"/>
<ellipse cx="36.9054" cy="53.0448" rx="0.46133" ry="0.46133" transform="rotate(90 36.9054 53.0448)" fill="#1E1037"/>
<ellipse cx="42.9034" cy="53.0448" rx="0.46133" ry="0.46133" transform="rotate(90 42.9034 53.0448)" fill="#1E1037"/>
<ellipse cx="48.9005" cy="53.0448" rx="0.46133" ry="0.46133" transform="rotate(90 48.9005 53.0448)" fill="#1E1037"/>
<ellipse cx="54.8966" cy="53.0448" rx="0.46133" ry="0.46133" transform="rotate(90 54.8966 53.0448)" fill="#1E1037"/>
<ellipse cx="60.8946" cy="53.0448" rx="0.46133" ry="0.46133" transform="rotate(90 60.8946 53.0448)" fill="#1E1037"/>
<ellipse cx="66.8927" cy="53.0448" rx="0.46133" ry="0.46133" transform="rotate(90 66.8927 53.0448)" fill="#1E1037"/>
<ellipse cx="72.8902" cy="53.0448" rx="0.46133" ry="0.46133" transform="rotate(90 72.8902 53.0448)" fill="#1E1037"/>
<ellipse cx="78.8873" cy="53.0448" rx="0.46133" ry="0.46133" transform="rotate(90 78.8873 53.0448)" fill="#1E1037"/>
<ellipse cx="84.8844" cy="53.0448" rx="0.46133" ry="0.46133" transform="rotate(90 84.8844 53.0448)" fill="#1E1037"/>
<ellipse cx="90.8819" cy="53.0448" rx="0.46133" ry="0.46133" transform="rotate(90 90.8819 53.0448)" fill="#1E1037"/>
<ellipse cx="96.879" cy="53.0448" rx="0.46133" ry="0.46133" transform="rotate(90 96.879 53.0448)" fill="#1E1037"/>
<ellipse cx="102.876" cy="53.0448" rx="0.46133" ry="0.46133" transform="rotate(90 102.876 53.0448)" fill="#1E1037"/>
<ellipse cx="108.873" cy="53.0448" rx="0.46133" ry="0.46133" transform="rotate(90 108.873 53.0448)" fill="#1E1037"/>
<ellipse cx="114.87" cy="53.0448" rx="0.46133" ry="0.46133" transform="rotate(90 114.87 53.0448)" fill="#1E1037"/>
<ellipse cx="120.867" cy="53.0448" rx="0.46133" ry="0.46133" transform="rotate(90 120.867 53.0448)" fill="#1E1037"/>
<ellipse cx="39.6754" cy="56.274" rx="0.46133" ry="0.46133" transform="rotate(90 39.6754 56.274)" fill="#1E1037"/>
<ellipse cx="45.6715" cy="56.274" rx="0.46133" ry="0.46133" transform="rotate(90 45.6715 56.274)" fill="#1E1037"/>
<ellipse cx="51.669" cy="56.274" rx="0.46133" ry="0.46133" transform="rotate(90 51.669 56.274)" fill="#1E1037"/>
<ellipse cx="57.6666" cy="56.274" rx="0.46133" ry="0.46133" transform="rotate(90 57.6666 56.274)" fill="#1E1037"/>
<ellipse cx="63.6627" cy="56.274" rx="0.46133" ry="0.46133" transform="rotate(90 63.6627 56.274)" fill="#1E1037"/>
<ellipse cx="69.6607" cy="56.274" rx="0.46133" ry="0.46133" transform="rotate(90 69.6607 56.274)" fill="#1E1037"/>
<ellipse cx="75.6588" cy="56.274" rx="0.46133" ry="0.46133" transform="rotate(90 75.6588 56.274)" fill="#1E1037"/>
<ellipse cx="81.6563" cy="56.274" rx="0.46133" ry="0.46133" transform="rotate(90 81.6563 56.274)" fill="#1E1037"/>
<ellipse cx="87.6524" cy="56.274" rx="0.46133" ry="0.46133" transform="rotate(90 87.6524 56.274)" fill="#1E1037"/>
<ellipse cx="93.65" cy="56.274" rx="0.46133" ry="0.46133" transform="rotate(90 93.65 56.274)" fill="#1E1037"/>
<ellipse cx="99.6461" cy="56.274" rx="0.46133" ry="0.46133" transform="rotate(90 99.6461 56.274)" fill="#1E1037"/>
<ellipse cx="105.644" cy="56.274" rx="0.46133" ry="0.46133" transform="rotate(90 105.644 56.274)" fill="#1E1037"/>
<ellipse cx="111.643" cy="56.274" rx="0.46133" ry="0.46133" transform="rotate(90 111.643 56.274)" fill="#1E1037"/>
<ellipse cx="117.639" cy="56.2741" rx="0.46133" ry="0.46133" transform="rotate(90 117.639 56.2741)" fill="#1E1037"/>
<ellipse cx="36.9054" cy="59.0421" rx="0.46133" ry="0.46133" transform="rotate(90 36.9054 59.0421)" fill="#1E1037"/>
<ellipse cx="42.9034" cy="59.0421" rx="0.46133" ry="0.46133" transform="rotate(90 42.9034 59.0421)" fill="#1E1037"/>
<ellipse cx="48.9005" cy="59.0421" rx="0.46133" ry="0.46133" transform="rotate(90 48.9005 59.0421)" fill="#1E1037"/>
<ellipse cx="54.8966" cy="59.0421" rx="0.46133" ry="0.46133" transform="rotate(90 54.8966 59.0421)" fill="#1E1037"/>
<ellipse cx="60.8946" cy="59.0421" rx="0.46133" ry="0.46133" transform="rotate(90 60.8946 59.0421)" fill="#1E1037"/>
<ellipse cx="66.8927" cy="59.0421" rx="0.46133" ry="0.46133" transform="rotate(90 66.8927 59.0421)" fill="#1E1037"/>
<ellipse cx="72.8902" cy="59.0421" rx="0.46133" ry="0.46133" transform="rotate(90 72.8902 59.0421)" fill="#1E1037"/>
<ellipse cx="78.8873" cy="59.0421" rx="0.46133" ry="0.46133" transform="rotate(90 78.8873 59.0421)" fill="#1E1037"/>
<ellipse cx="84.8849" cy="59.0421" rx="0.46133" ry="0.46133" transform="rotate(90 84.8849 59.0421)" fill="#1E1037"/>
<ellipse cx="90.8819" cy="59.0421" rx="0.46133" ry="0.46133" transform="rotate(90 90.8819 59.0421)" fill="#1E1037"/>
<ellipse cx="96.879" cy="59.0421" rx="0.46133" ry="0.46133" transform="rotate(90 96.879 59.0421)" fill="#1E1037"/>
<ellipse cx="102.876" cy="59.0421" rx="0.46133" ry="0.46133" transform="rotate(90 102.876 59.0421)" fill="#1E1037"/>
<ellipse cx="108.873" cy="59.0421" rx="0.46133" ry="0.46133" transform="rotate(90 108.873 59.0421)" fill="#1E1037"/>
<ellipse cx="114.87" cy="59.0421" rx="0.46133" ry="0.46133" transform="rotate(90 114.87 59.0421)" fill="#1E1037"/>
<ellipse cx="120.867" cy="59.0421" rx="0.46133" ry="0.46133" transform="rotate(90 120.867 59.0421)" fill="#1E1037"/>
<ellipse cx="39.6754" cy="61.8101" rx="0.46133" ry="0.46133" transform="rotate(90 39.6754 61.8101)" fill="#1E1037"/>
<ellipse cx="45.6715" cy="61.8101" rx="0.46133" ry="0.46133" transform="rotate(90 45.6715 61.8101)" fill="#1E1037"/>
<ellipse cx="51.669" cy="61.8101" rx="0.46133" ry="0.46133" transform="rotate(90 51.669 61.8101)" fill="#1E1037"/>
<ellipse cx="57.6666" cy="61.8101" rx="0.46133" ry="0.46133" transform="rotate(90 57.6666 61.8101)" fill="#1E1037"/>
<ellipse cx="63.6627" cy="61.8101" rx="0.46133" ry="0.46133" transform="rotate(90 63.6627 61.8101)" fill="#1E1037"/>
<ellipse cx="69.6607" cy="61.8101" rx="0.46133" ry="0.46133" transform="rotate(90 69.6607 61.8101)" fill="#1E1037"/>
<ellipse cx="75.6588" cy="61.8101" rx="0.46133" ry="0.46133" transform="rotate(90 75.6588 61.8101)" fill="#1E1037"/>
<ellipse cx="81.6563" cy="61.8101" rx="0.46133" ry="0.46133" transform="rotate(90 81.6563 61.8101)" fill="#1E1037"/>
<ellipse cx="87.6524" cy="61.8101" rx="0.46133" ry="0.46133" transform="rotate(90 87.6524 61.8101)" fill="#1E1037"/>
<ellipse cx="93.65" cy="61.8101" rx="0.46133" ry="0.46133" transform="rotate(90 93.65 61.8101)" fill="#1E1037"/>
<ellipse cx="99.6461" cy="61.8101" rx="0.46133" ry="0.46133" transform="rotate(90 99.6461 61.8101)" fill="#1E1037"/>
<ellipse cx="105.644" cy="61.8101" rx="0.46133" ry="0.46133" transform="rotate(90 105.644 61.8101)" fill="#1E1037"/>
<ellipse cx="111.643" cy="61.8101" rx="0.46133" ry="0.46133" transform="rotate(90 111.643 61.8101)" fill="#1E1037"/>
<ellipse cx="117.639" cy="61.8101" rx="0.46133" ry="0.46133" transform="rotate(90 117.639 61.8101)" fill="#1E1037"/>
<ellipse cx="36.9054" cy="65.0393" rx="0.46133" ry="0.46133" transform="rotate(90 36.9054 65.0393)" fill="#1E1037"/>
<ellipse cx="42.9034" cy="65.0393" rx="0.46133" ry="0.46133" transform="rotate(90 42.9034 65.0393)" fill="#1E1037"/>
<ellipse cx="39.6739" cy="68.2686" rx="0.46133" ry="0.46133" transform="rotate(90 39.6739 68.2686)" fill="#1E1037"/>
<ellipse cx="48.9005" cy="65.0393" rx="0.46133" ry="0.46133" transform="rotate(90 48.9005 65.0393)" fill="#1E1037"/>
<ellipse cx="54.8966" cy="65.0393" rx="0.46133" ry="0.46133" transform="rotate(90 54.8966 65.0393)" fill="#1E1037"/>
<ellipse cx="60.8946" cy="65.0393" rx="0.46133" ry="0.46133" transform="rotate(90 60.8946 65.0393)" fill="#1E1037"/>
<ellipse cx="66.8927" cy="65.0393" rx="0.46133" ry="0.46133" transform="rotate(90 66.8927 65.0393)" fill="#1E1037"/>
<ellipse cx="72.8902" cy="65.0393" rx="0.46133" ry="0.46133" transform="rotate(90 72.8902 65.0393)" fill="#1E1037"/>
<ellipse cx="78.8873" cy="65.0393" rx="0.46133" ry="0.46133" transform="rotate(90 78.8873 65.0393)" fill="#1E1037"/>
<ellipse cx="84.8849" cy="65.0393" rx="0.46133" ry="0.46133" transform="rotate(90 84.8849 65.0393)" fill="#1E1037"/>
<ellipse cx="90.8819" cy="65.0393" rx="0.46133" ry="0.46133" transform="rotate(90 90.8819 65.0393)" fill="#1E1037"/>
<ellipse cx="96.879" cy="65.0393" rx="0.46133" ry="0.46133" transform="rotate(90 96.879 65.0393)" fill="#1E1037"/>
<ellipse cx="102.876" cy="65.0393" rx="0.46133" ry="0.46133" transform="rotate(90 102.876 65.0393)" fill="#1E1037"/>
<ellipse cx="108.873" cy="65.0393" rx="0.46133" ry="0.46133" transform="rotate(90 108.873 65.0393)" fill="#1E1037"/>
<ellipse cx="114.87" cy="65.0393" rx="0.46133" ry="0.46133" transform="rotate(90 114.87 65.0393)" fill="#1E1037"/>
<ellipse cx="120.867" cy="65.0395" rx="0.46133" ry="0.46133" transform="rotate(90 120.867 65.0395)" fill="#1E1037"/>
<ellipse cx="46.1324" cy="68.2688" rx="0.46133" ry="0.46133" transform="rotate(90 46.1324 68.2688)" fill="#1E1037"/>
<ellipse cx="52.13" cy="68.2688" rx="0.46133" ry="0.46133" transform="rotate(90 52.13 68.2688)" fill="#1E1037"/>
<ellipse cx="58.128" cy="68.2688" rx="0.46133" ry="0.46133" transform="rotate(90 58.128 68.2688)" fill="#1E1037"/>
<ellipse cx="64.1256" cy="68.2688" rx="0.46133" ry="0.46133" transform="rotate(90 64.1256 68.2688)" fill="#1E1037"/>
<ellipse cx="70.1222" cy="68.2688" rx="0.46133" ry="0.46133" transform="rotate(90 70.1222 68.2688)" fill="#1E1037"/>
<ellipse cx="76.1197" cy="68.2688" rx="0.46133" ry="0.46133" transform="rotate(90 76.1197 68.2688)" fill="#1E1037"/>
<ellipse cx="82.1173" cy="68.2688" rx="0.46133" ry="0.46133" transform="rotate(90 82.1173 68.2688)" fill="#1E1037"/>
<ellipse cx="88.1144" cy="68.2688" rx="0.46133" ry="0.46133" transform="rotate(90 88.1144 68.2688)" fill="#1E1037"/>
<ellipse cx="94.1114" cy="68.2688" rx="0.46133" ry="0.46133" transform="rotate(90 94.1114 68.2688)" fill="#1E1037"/>
<ellipse cx="100.109" cy="68.2688" rx="0.46133" ry="0.46133" transform="rotate(90 100.109 68.2688)" fill="#1E1037"/>
<ellipse cx="106.107" cy="68.2688" rx="0.46133" ry="0.46133" transform="rotate(90 106.107 68.2688)" fill="#1E1037"/>
<ellipse cx="112.103" cy="68.2688" rx="0.46133" ry="0.46133" transform="rotate(90 112.103 68.2688)" fill="#1E1037"/>
<ellipse cx="118.1" cy="68.2687" rx="0.46133" ry="0.46133" transform="rotate(90 118.1 68.2687)" fill="#1E1037"/>
<ellipse cx="48.9005" cy="71.0367" rx="0.46133" ry="0.46133" transform="rotate(90 48.9005 71.0367)" fill="#1E1037"/>
<ellipse cx="36.9063" cy="71.0367" rx="0.46133" ry="0.46133" transform="rotate(90 36.9063 71.0367)" fill="#1E1037"/>
<ellipse cx="42.9034" cy="71.0367" rx="0.46133" ry="0.46133" transform="rotate(90 42.9034 71.0367)" fill="#1E1037"/>
<ellipse cx="39.6739" cy="74.266" rx="0.46133" ry="0.46133" transform="rotate(90 39.6739 74.266)" fill="#1E1037"/>
<ellipse cx="54.899" cy="71.0367" rx="0.46133" ry="0.46133" transform="rotate(90 54.899 71.0367)" fill="#1E1037"/>
<ellipse cx="60.8961" cy="71.0367" rx="0.46133" ry="0.46133" transform="rotate(90 60.8961 71.0367)" fill="#1E1037"/>
<ellipse cx="66.8927" cy="71.0367" rx="0.46133" ry="0.46133" transform="rotate(90 66.8927 71.0367)" fill="#1E1037"/>
<ellipse cx="72.8902" cy="71.0367" rx="0.46133" ry="0.46133" transform="rotate(90 72.8902 71.0367)" fill="#1E1037"/>
<ellipse cx="78.8878" cy="71.0367" rx="0.46133" ry="0.46133" transform="rotate(90 78.8878 71.0367)" fill="#1E1037"/>
<ellipse cx="84.8844" cy="71.0367" rx="0.46133" ry="0.46133" transform="rotate(90 84.8844 71.0367)" fill="#1E1037"/>
<ellipse cx="90.8829" cy="71.0367" rx="0.46133" ry="0.46133" transform="rotate(90 90.8829 71.0367)" fill="#1E1037"/>
<ellipse cx="96.88" cy="71.0367" rx="0.46133" ry="0.46133" transform="rotate(90 96.88 71.0367)" fill="#1E1037"/>
<ellipse cx="102.876" cy="71.0367" rx="0.46133" ry="0.46133" transform="rotate(90 102.876 71.0367)" fill="#1E1037"/>
<ellipse cx="108.874" cy="71.0367" rx="0.46133" ry="0.46133" transform="rotate(90 108.874 71.0367)" fill="#1E1037"/>
<ellipse cx="114.871" cy="71.0367" rx="0.46133" ry="0.46133" transform="rotate(90 114.871 71.0367)" fill="#1E1037"/>
<ellipse cx="120.867" cy="71.0367" rx="0.46133" ry="0.46133" transform="rotate(90 120.867 71.0367)" fill="#1E1037"/>
<ellipse cx="58.128" cy="74.266" rx="0.46133" ry="0.46133" transform="rotate(90 58.128 74.266)" fill="#1E1037"/>
<ellipse cx="64.1256" cy="74.266" rx="0.46133" ry="0.46133" transform="rotate(90 64.1256 74.266)" fill="#1E1037"/>
<ellipse cx="70.1222" cy="74.266" rx="0.46133" ry="0.46133" transform="rotate(90 70.1222 74.266)" fill="#1E1037"/>
<ellipse cx="76.1197" cy="74.266" rx="0.46133" ry="0.46133" transform="rotate(90 76.1197 74.266)" fill="#1E1037"/>
<ellipse cx="82.1173" cy="74.266" rx="0.46133" ry="0.46133" transform="rotate(90 82.1173 74.266)" fill="#1E1037"/>
<ellipse cx="88.1144" cy="74.266" rx="0.46133" ry="0.46133" transform="rotate(90 88.1144 74.266)" fill="#1E1037"/>
<ellipse cx="94.1114" cy="74.266" rx="0.46133" ry="0.46133" transform="rotate(90 94.1114 74.266)" fill="#1E1037"/>
<ellipse cx="100.109" cy="74.266" rx="0.46133" ry="0.46133" transform="rotate(90 100.109 74.266)" fill="#1E1037"/>
<ellipse cx="106.107" cy="74.266" rx="0.46133" ry="0.46133" transform="rotate(90 106.107 74.266)" fill="#1E1037"/>
<ellipse cx="112.103" cy="74.266" rx="0.46133" ry="0.46133" transform="rotate(90 112.103 74.266)" fill="#1E1037"/>
<ellipse cx="118.1" cy="74.266" rx="0.46133" ry="0.46133" transform="rotate(90 118.1 74.266)" fill="#1E1037"/>
<ellipse cx="67.3536" cy="77.4954" rx="0.46133" ry="0.46133" transform="rotate(90 67.3536 77.4954)" fill="#1E1037"/>
<ellipse cx="73.3512" cy="77.4954" rx="0.46133" ry="0.46133" transform="rotate(90 73.3512 77.4954)" fill="#1E1037"/>
<ellipse cx="79.3487" cy="77.4954" rx="0.46133" ry="0.46133" transform="rotate(90 79.3487 77.4954)" fill="#1E1037"/>
<ellipse cx="85.3463" cy="77.4954" rx="0.46133" ry="0.46133" transform="rotate(90 85.3463 77.4954)" fill="#1E1037"/>
<ellipse cx="91.3429" cy="77.4954" rx="0.46133" ry="0.46133" transform="rotate(90 91.3429 77.4954)" fill="#1E1037"/>
<ellipse cx="97.3409" cy="77.4954" rx="0.46133" ry="0.46133" transform="rotate(90 97.3409 77.4954)" fill="#1E1037"/>
<ellipse cx="103.338" cy="77.4954" rx="0.46133" ry="0.46133" transform="rotate(90 103.338 77.4954)" fill="#1E1037"/>
<ellipse cx="109.334" cy="77.4954" rx="0.46133" ry="0.46133" transform="rotate(90 109.334 77.4954)" fill="#1E1037"/>
<ellipse cx="115.331" cy="77.4954" rx="0.46133" ry="0.46133" transform="rotate(90 115.331 77.4954)" fill="#1E1037"/>
<ellipse cx="121.329" cy="77.4953" rx="0.46133" ry="0.46133" transform="rotate(90 121.329 77.4953)" fill="#1E1037"/>
<path d="M38.7515 41.7423C38.7515 36.5192 42.9856 32.285 48.2087 32.285H90.4204C96.0257 32.285 100.57 36.829 100.57 42.4343V47.2783C100.57 55.5588 93.857 62.2715 85.5765 62.2715H53.7447C45.4642 62.2715 38.7515 55.5588 38.7515 47.2783V41.7423Z" fill="#1F1332"/>
<rect x="39.2515" y="27.249" width="60.8182" height="28.9865" rx="14.4932" fill="#FDFDFD" stroke="#1F1332"/>
<rect x="-0.5" y="-0.5" width="48.3624" height="18.8372" rx="7.5" transform="matrix(1.19249e-08 -1 -1 -1.19249e-08 237.508 198.286)" fill="#D5FDCE" stroke="#1F1332"/>
<rect x="230.204" y="178.527" width="11.9946" height="3.22931" rx="1.61465" transform="rotate(90 230.204 178.527)" fill="#1F1038"/>
<rect x="-0.5" y="-0.5" width="32.6771" height="18.8372" rx="7.5" transform="matrix(1.19249e-08 -1 -1 -1.19249e-08 276.721 198.286)" fill="#CDC0FE" stroke="#1F1332"/>
<rect x="269.417" y="178.527" width="11.9946" height="3.22931" rx="1.61465" transform="rotate(90 269.417 178.527)" fill="#1F1038"/>
<rect x="-0.5" y="-0.5" width="38.6744" height="18.8372" rx="7.5" transform="matrix(1.19249e-08 -1 -1 -1.19249e-08 207.983 198.287)" fill="#CDC0FE" stroke="#1F1332"/>
<rect x="200.679" y="167.455" width="23.0665" height="3.22931" rx="1.61465" transform="rotate(90 200.679 167.455)" fill="#1F1038"/>
<rect x="43.8647" y="31.8622" width="31.7544" height="19.7599" rx="9.87994" fill="#CDC0FE" stroke="#1F1038"/>
<rect x="86.73" y="37.8209" width="7.38129" height="1.38399" rx="0.691995" transform="rotate(90 86.73 37.8209)" fill="#1F1038"/>
<rect x="58.1274" y="34.1303" width="14.7626" height="14.7626" rx="7.38128" fill="#1F1038"/>
<path d="M69.1991 62.2715C69.1991 69.8944 69.1991 83.0175 69.1991 86.4196C69.1991 91.2956 62.992 97.3326 58.3941 97.3326C53.7963 97.3326 0.460938 97.3326 0.460938 97.3326" stroke="#1E1037"/>
<path d="M64.5858 61.3488C64.5858 68.9717 64.5858 88.5534 64.5858 91.9555C64.5858 96.8316 58.7953 102.869 54.506 102.869C50.2167 102.869 0.460938 102.869 0.460938 102.869" stroke="#1E1037" stroke-opacity="0.1" stroke-width="2.6"/>
<path d="M130.095 107.02C123.573 107.02 88.575 107.02 83.2697 107.02C77.9644 107.02 71.9671 113.018 71.9671 118.323C71.9671 123.628 71.9671 166.301 71.9671 166.301" stroke="#1E1037"/>
<path d="M199 160C199 158.01 199 142 199 142" stroke="#1E1037"/>
<path d="M219 179C217.663 179 208 179 208 179" stroke="#1E1037"/>
<path d="M238 184C240.432 184 258 184 258 184" stroke="#1E1037"/>
<path d="M110.026 112.556C103.504 112.556 83.9612 112.556 78.6559 112.556C73.3506 112.556 67.3533 118.017 67.3533 122.847C67.3533 127.678 67.3533 166.532 67.3533 166.532" stroke="#1E1037" stroke-opacity="0.1" stroke-width="2.6"/>
<path d="M71.9668 166.301L71.9668 183.601" stroke="#CEC1FF"/>
<path d="M178.073 107.02C171.52 107.02 160.238 107.02 157.313 107.02" stroke="#1E1037"/>
<path d="M331.695 107.02C296.453 107.02 250.083 107.02 234.355 107.02" stroke="#1E1037"/>
<path d="M244.505 25.5957C240.79 36.0521 239.428 42.3202 238.277 54.1982" stroke="#1E1037"/>
<path d="M266.417 26.749C253.731 43.5875 259.267 75.4193 266.417 81.4166" stroke="#1E1037"/>
<path d="M234.355 107.02C216.734 107.02 186.398 107.02 178.534 107.02" stroke="#D5FDCE"/>
<path d="M69.1992 56.2741V62.2714" stroke="#FCFCFC" stroke-width="2.6"/>
<defs>
<linearGradient id="paint0_linear_139_115" x1="94.0996" y1="-2.18177e-08" x2="85.8231" y2="180.484" gradientUnits="userSpaceOnUse">
<stop offset="0.020373" stop-color="#CCBFFD" stop-opacity="0"/>
<stop offset="0.630583" stop-color="#CCBFFD" stop-opacity="0.56"/>
<stop offset="1" stop-color="#D9D9D9" stop-opacity="0"/>
</linearGradient>
<linearGradient id="paint1_linear_139_115" x1="5.30529" y1="49.8156" x2="192.605" y2="220.738" gradientUnits="userSpaceOnUse">
<stop stop-color="#CCBFFD"/>
<stop offset="1" stop-color="#D3CFE6"/>
</linearGradient>
</defs>
</svg>
