<svg width="176" height="43" viewBox="0 0 176 43" fill="none" xmlns="http://www.w3.org/2000/svg">
<path d="M63.6 31L58.112 16.048H61.416L66.12 29.236H64.552L69.48 16.048H72.42L77.208 29.236H75.668L80.512 16.048H83.62L78.104 31H74.744L70.376 19.324H71.412L66.96 31H63.6ZM92.3363 31.196C90.8056 31.196 89.443 30.8693 88.2483 30.216C87.0536 29.544 86.111 28.6293 85.4203 27.472C84.7296 26.3147 84.3843 24.9987 84.3843 23.524C84.3843 22.0307 84.7296 20.7147 85.4203 19.576C86.111 18.4187 87.0536 17.5133 88.2483 16.86C89.443 16.2067 90.8056 15.88 92.3363 15.88C93.8856 15.88 95.2576 16.2067 96.4523 16.86C97.6656 17.5133 98.6083 18.4093 99.2803 19.548C99.971 20.6867 100.316 22.012 100.316 23.524C100.316 24.9987 99.971 26.3147 99.2803 27.472C98.6083 28.6293 97.6656 29.544 96.4523 30.216C95.2576 30.8693 93.8856 31.196 92.3363 31.196ZM92.3363 28.2C93.195 28.2 93.9603 28.0133 94.6323 27.64C95.3043 27.2667 95.827 26.7253 96.2003 26.016C96.5923 25.3067 96.7883 24.476 96.7883 23.524C96.7883 22.5533 96.5923 21.7227 96.2003 21.032C95.827 20.3227 95.3043 19.7813 94.6323 19.408C93.9603 19.0347 93.2043 18.848 92.3643 18.848C91.5056 18.848 90.7403 19.0347 90.0683 19.408C89.415 19.7813 88.8923 20.3227 88.5003 21.032C88.1083 21.7227 87.9123 22.5533 87.9123 23.524C87.9123 24.476 88.1083 25.3067 88.5003 26.016C88.8923 26.7253 89.415 27.2667 90.0683 27.64C90.7403 28.0133 91.4963 28.2 92.3363 28.2ZM103.663 31V16.048H106.995V20.164L106.603 18.96C107.051 17.952 107.751 17.1867 108.703 16.664C109.674 16.1413 110.878 15.88 112.315 15.88V19.212C112.166 19.1747 112.026 19.156 111.895 19.156C111.765 19.1373 111.634 19.128 111.503 19.128C110.178 19.128 109.123 19.52 108.339 20.304C107.555 21.0693 107.163 22.2173 107.163 23.748V31H103.663ZM121.476 31.196C120.038 31.196 118.741 30.8787 117.584 30.244C116.445 29.6093 115.549 28.7227 114.896 27.584C114.242 26.4267 113.916 25.0733 113.916 23.524C113.916 21.9747 114.242 20.6307 114.896 19.492C115.549 18.3533 116.445 17.4667 117.584 16.832C118.741 16.1973 120.038 15.88 121.476 15.88C122.764 15.88 123.893 16.16 124.864 16.72C125.853 17.2613 126.628 18.092 127.188 19.212C127.766 20.332 128.056 21.7693 128.056 23.524C128.056 25.26 127.757 26.6973 127.16 27.836C126.581 28.956 125.797 29.796 124.808 30.356C123.818 30.916 122.708 31.196 121.476 31.196ZM121.868 28.2C122.708 28.2 123.464 28.0133 124.136 27.64C124.808 27.2667 125.34 26.7253 125.732 26.016C126.124 25.3067 126.32 24.476 126.32 23.524C126.32 22.5533 126.124 21.7227 125.732 21.032C125.34 20.3227 124.808 19.7813 124.136 19.408C123.464 19.0347 122.708 18.848 121.868 18.848C121.028 18.848 120.272 19.0347 119.6 19.408C118.946 19.7813 118.424 20.3227 118.032 21.032C117.64 21.7227 117.444 22.5533 117.444 23.524C117.444 24.476 117.64 25.3067 118.032 26.016C118.424 26.7253 118.946 27.2667 119.6 27.64C120.272 28.0133 121.028 28.2 121.868 28.2ZM126.264 36.432V27.528L126.544 23.552L126.432 19.576V16.048H129.764V36.432H126.264ZM140.671 31.196C139.402 31.196 138.282 30.9627 137.311 30.496C136.34 30.0107 135.584 29.2827 135.043 28.312C134.502 27.3227 134.231 26.0813 134.231 24.588V16.048H137.731V24.112C137.731 25.456 138.03 26.464 138.627 27.136C139.243 27.7893 140.111 28.116 141.231 28.116C142.052 28.116 142.762 27.948 143.359 27.612C143.975 27.276 144.451 26.772 144.787 26.1C145.142 25.428 145.319 24.5973 145.319 23.608V16.048H148.819V31H145.487V26.968L146.075 28.2C145.571 29.1707 144.834 29.9173 143.863 30.44C142.892 30.944 141.828 31.196 140.671 31.196ZM160.429 31.196C158.768 31.196 157.312 30.8693 156.061 30.216C154.829 29.544 153.868 28.6293 153.177 27.472C152.505 26.3147 152.169 24.9987 152.169 23.524C152.169 22.0307 152.496 20.7147 153.149 19.576C153.821 18.4187 154.736 17.5133 155.893 16.86C157.069 16.2067 158.404 15.88 159.897 15.88C161.353 15.88 162.651 16.1973 163.789 16.832C164.928 17.4667 165.824 18.3627 166.477 19.52C167.131 20.6773 167.457 22.04 167.457 23.608C167.457 23.7573 167.448 23.9253 167.429 24.112C167.429 24.2987 167.42 24.476 167.401 24.644H154.941V22.32H165.553L164.181 23.048C164.2 22.1893 164.023 21.4333 163.649 20.78C163.276 20.1267 162.763 19.6133 162.109 19.24C161.475 18.8667 160.737 18.68 159.897 18.68C159.039 18.68 158.283 18.8667 157.629 19.24C156.995 19.6133 156.491 20.136 156.117 20.808C155.763 21.4613 155.585 22.236 155.585 23.132V23.692C155.585 24.588 155.791 25.3813 156.201 26.072C156.612 26.7627 157.191 27.2947 157.937 27.668C158.684 28.0413 159.543 28.228 160.513 28.228C161.353 28.228 162.109 28.0973 162.781 27.836C163.453 27.5747 164.051 27.164 164.573 26.604L166.449 28.76C165.777 29.544 164.928 30.1507 163.901 30.58C162.893 30.9907 161.736 31.196 160.429 31.196ZM171.939 31.196C171.305 31.196 170.763 30.9813 170.315 30.552C169.867 30.104 169.643 29.544 169.643 28.872C169.643 28.1627 169.867 27.6027 170.315 27.192C170.763 26.7627 171.305 26.548 171.939 26.548C172.574 26.548 173.115 26.7627 173.563 27.192C174.011 27.6027 174.235 28.1627 174.235 28.872C174.235 29.544 174.011 30.104 173.563 30.552C173.115 30.9813 172.574 31.196 171.939 31.196Z" fill="black"/>
<path d="M28 7C28 10.866 24.866 22 21 22C17.134 22 14 10.866 14 7C14 3.13401 17.134 0 21 0C24.866 0 28 3.13401 28 7Z" fill="black"/>
<path d="M42 22C42 25.866 38.866 29 35 29C31.134 29 21 25.866 21 22C21 18.134 31.134 15 35 15C38.866 15 42 18.134 42 22Z" fill="black"/>
<path d="M28 36C28 39.866 24.866 43 21 43C17.134 43 14 39.866 14 36C14 32.134 17.134 22 21 22C24.866 22 28 32.134 28 36Z" fill="black"/>
<path d="M21 22C21 25.866 10.866 29 7 29C3.13401 29 0 25.866 0 22C0 18.134 3.13401 15 7 15C10.866 15 21 18.134 21 22Z" fill="black"/>
</svg>
